M48
;GenerationSoftware,Autodesk,EAGLE,9.6.2*%
;CreationDate,2022-04-28T18:26:09Z*%
FMAT,2
ICI,OFF
METRIC,TZ,000.000
T9C0.450
T8C0.650
T7C0.700
T6C0.813
T5C1.000
T4C1.016
T3C3.500
T2C5.000
T1C5.500
%
G90
M71
T1
X24000Y92000
X13000Y92000
T2
X5000Y5000
X95000Y95000
X5000Y95000
T3
X29050Y70840
X9050Y35840
T4
X40500Y94130
X40500Y91590
X40500Y89050
X40500Y86510
X40500Y83970
X40500Y81430
X40500Y78890
X40500Y76350
X40500Y73810
X40500Y71270
X40500Y68730
X40500Y66190
X40500Y63650
X40500Y58570
X40500Y56030
X40500Y53490
X40500Y50950
X40500Y48410
X40500Y45870
X13970Y13970
X13970Y16510
X13970Y19050
X84100Y45870
X84100Y48410
X84100Y50950
X84100Y53490
X84100Y56030
X84100Y58570
X84100Y61110
X84100Y63650
X84100Y66190
X84100Y68730
X84100Y71270
X84100Y73810
X84100Y76350
X84100Y78890
X84100Y81430
X84100Y86510
X84100Y89050
X84100Y91590
X84100Y94130
X40500Y61110
X84100Y83970
T5
X57000Y55500
X50000Y33500
X50000Y42000
X50000Y51000
X44500Y54000
X40500Y42000
X67000Y40500
X87000Y4500
X92500Y10500
X92500Y21000
X93000Y30000
X93000Y41000
X80000Y17500
X81000Y23500
X87500Y30000
X87500Y22500
X85500Y34500
X84000Y41000
X9000Y10500
X17500Y6500
X26000Y6500
X25500Y12500
X31000Y16500
X40500Y16500
X41500Y9000
X46000Y2500
X49500Y19000
X45500Y23000
X45500Y19000
X50000Y76000
X71500Y86000
X70500Y74500
X53000Y89500
X79000Y81000
X68500Y61500
X79000Y89000
X56000Y96500
X63500Y90000
X92500Y62000
X92500Y73000
X93000Y82000
X88000Y86500
X87500Y79000
X87500Y67500
X87500Y58500
X75000Y64000
X80500Y68500
X78500Y74500
X63500Y82000
X44500Y36500
X93000Y50500
X73000Y92500
X66000Y10500
X69500Y21000
X61500Y46500
X61500Y53000
X39000Y29000
X74930Y33020
X74930Y30480
X74930Y27940
X74930Y25400
X74930Y22860
X74930Y20320
X74930Y17780
X62230Y17780
X62230Y20320
X62230Y22860
X62230Y25400
X62230Y27940
X62230Y30480
X62230Y33020
X62230Y35560
X74930Y35560
X44000Y62000
X57000Y69000
X44000Y73500
X44000Y89500
X56500Y76000
X72000Y53500
X3500Y57000
X7500Y91000
X3500Y38000
X16500Y23000
X57500Y32000
X35000Y87500
X32000Y96000
X49500Y84000
X44000Y81500
X50000Y25500
X61500Y40000
X70500Y44000
X61500Y70500
X61500Y63500
X64000Y5000
X34500Y31500
X34500Y56500
X36500Y68000
X70500Y35000
X65000Y29500
X62500Y13500
X34500Y43500
X3500Y65500
X3500Y75000
X3500Y85500
X3500Y47500
X3500Y28500
X44000Y96500
X36000Y78500
X47500Y65500
X51500Y61500
X66500Y48500
X87000Y15500
X56500Y85500
X45500Y29000
X40000Y24500
X50000Y14500
X29050Y28340
X9050Y28340
X9050Y78340
X29050Y78340
X59690Y8970
X57150Y8970
X54610Y8970
X52070Y8970
X49530Y8970
X46990Y8970
X82550Y8970
X80010Y8970
X77470Y8970
X74930Y8970
X72390Y8970
X69850Y8970
X36830Y8970
X34290Y8970
X31750Y8970
X57000Y40000
X57000Y48500
T6
X6350Y13970
X6350Y16510
X24130Y19050
X24130Y16510
T7
X37100Y23100
X71400Y15400
X82600Y14000
X72800Y13300
T8
X59000Y25000
T9
X77500Y19500
X79500Y31500
X89500Y38500
X72500Y25500
M30