G04 EAGLE Gerber RS-274X export*
G75*
%MOMM*%
%FSLAX34Y34*%
%LPD*%
%INBottom Copper*%
%IPPOS*%
%AMOC8*
5,1,8,0,0,1.08239X$1,22.5*%
G01*
%ADD10P,1.429621X8X112.500000*%
%ADD11P,1.429621X8X292.500000*%
%ADD12P,1.924489X8X22.500000*%
%ADD13P,1.924489X8X202.500000*%
%ADD14C,1.524000*%
%ADD15R,6.451600X6.451600*%
%ADD16C,1.508000*%
%ADD17C,6.516000*%
%ADD18R,6.516000X6.516000*%
%ADD19C,2.000000*%
%ADD20C,0.609600*%
%ADD21C,1.300000*%
%ADD22C,1.400000*%
%ADD23C,0.406400*%
%ADD24C,0.900000*%
%ADD25C,1.270000*%
%ADD26C,0.812800*%
%ADD27C,1.500000*%

G36*
X950016Y10163D02*
X950016Y10163D01*
X950043Y10162D01*
X954418Y10408D01*
X954450Y10415D01*
X954545Y10426D01*
X963076Y12373D01*
X963077Y12373D01*
X963079Y12373D01*
X963237Y12429D01*
X971121Y16226D01*
X971122Y16227D01*
X971124Y16227D01*
X971265Y16317D01*
X978107Y21773D01*
X978108Y21773D01*
X978109Y21774D01*
X978227Y21893D01*
X983683Y28735D01*
X983684Y28736D01*
X983685Y28737D01*
X983699Y28758D01*
X983704Y28764D01*
X983709Y28775D01*
X983774Y28879D01*
X987571Y36763D01*
X987571Y36764D01*
X987572Y36766D01*
X987627Y36924D01*
X989574Y45455D01*
X989576Y45487D01*
X989592Y45582D01*
X989838Y49957D01*
X989836Y49974D01*
X989839Y50000D01*
X989839Y950000D01*
X989837Y950016D01*
X989838Y950043D01*
X989592Y954418D01*
X989585Y954450D01*
X989574Y954545D01*
X987627Y963076D01*
X987627Y963077D01*
X987627Y963079D01*
X987571Y963237D01*
X983774Y971121D01*
X983773Y971122D01*
X983773Y971124D01*
X983683Y971265D01*
X978227Y978107D01*
X978227Y978108D01*
X978226Y978109D01*
X978107Y978227D01*
X971265Y983683D01*
X971264Y983684D01*
X971263Y983685D01*
X971121Y983774D01*
X963237Y987571D01*
X963236Y987571D01*
X963234Y987572D01*
X963076Y987627D01*
X959916Y988348D01*
X959916Y988349D01*
X956581Y989110D01*
X954545Y989574D01*
X954513Y989576D01*
X954418Y989592D01*
X950043Y989838D01*
X950026Y989836D01*
X950000Y989839D01*
X50000Y989839D01*
X49984Y989837D01*
X49957Y989838D01*
X45582Y989592D01*
X45550Y989585D01*
X45455Y989574D01*
X36924Y987627D01*
X36923Y987627D01*
X36921Y987627D01*
X36763Y987571D01*
X28879Y983774D01*
X28878Y983773D01*
X28876Y983773D01*
X28735Y983683D01*
X21893Y978228D01*
X21892Y978227D01*
X21891Y978226D01*
X21773Y978107D01*
X16317Y971265D01*
X16316Y971264D01*
X16315Y971263D01*
X16226Y971121D01*
X12429Y963237D01*
X12429Y963236D01*
X12428Y963234D01*
X12373Y963076D01*
X10426Y954545D01*
X10424Y954513D01*
X10408Y954418D01*
X10162Y950043D01*
X10164Y950026D01*
X10161Y950000D01*
X10161Y50000D01*
X10163Y49984D01*
X10162Y49957D01*
X10408Y45582D01*
X10415Y45550D01*
X10426Y45455D01*
X12373Y36924D01*
X12373Y36923D01*
X12373Y36921D01*
X12429Y36763D01*
X16226Y28879D01*
X16227Y28878D01*
X16227Y28876D01*
X16317Y28735D01*
X21773Y21893D01*
X21773Y21892D01*
X21774Y21891D01*
X21893Y21773D01*
X28735Y16317D01*
X28736Y16316D01*
X28737Y16315D01*
X28879Y16226D01*
X36763Y12429D01*
X36764Y12429D01*
X36766Y12428D01*
X36924Y12373D01*
X39864Y11702D01*
X43199Y10940D01*
X45455Y10426D01*
X45487Y10424D01*
X45582Y10408D01*
X49957Y10162D01*
X49974Y10164D01*
X50000Y10161D01*
X950000Y10161D01*
X950016Y10163D01*
G37*
%LPC*%
G36*
X517987Y68523D02*
X517987Y68523D01*
X512975Y70599D01*
X509139Y74435D01*
X507063Y79447D01*
X507063Y99953D01*
X509139Y104965D01*
X512348Y108174D01*
X512401Y108248D01*
X512461Y108317D01*
X512473Y108347D01*
X512492Y108373D01*
X512519Y108460D01*
X512553Y108545D01*
X512557Y108586D01*
X512564Y108608D01*
X512563Y108641D01*
X512571Y108712D01*
X512571Y520618D01*
X512557Y520708D01*
X512549Y520799D01*
X512537Y520828D01*
X512532Y520860D01*
X512489Y520941D01*
X512453Y521025D01*
X512427Y521057D01*
X512416Y521078D01*
X512393Y521100D01*
X512348Y521156D01*
X481556Y551948D01*
X481482Y552001D01*
X481413Y552061D01*
X481382Y552073D01*
X481356Y552092D01*
X481269Y552119D01*
X481184Y552153D01*
X481143Y552157D01*
X481121Y552164D01*
X481089Y552163D01*
X481018Y552171D01*
X424205Y552171D01*
X424115Y552157D01*
X424024Y552149D01*
X423994Y552137D01*
X423962Y552132D01*
X423882Y552089D01*
X423798Y552053D01*
X423765Y552027D01*
X423745Y552016D01*
X423744Y552016D01*
X423723Y551993D01*
X423667Y551948D01*
X420390Y548672D01*
X419501Y548303D01*
X419440Y548266D01*
X419375Y548236D01*
X419353Y548217D01*
X419340Y548210D01*
X419326Y548195D01*
X419292Y548174D01*
X419246Y548119D01*
X419193Y548070D01*
X419174Y548035D01*
X419171Y548031D01*
X419166Y548022D01*
X419135Y547984D01*
X419109Y547917D01*
X419075Y547854D01*
X419066Y547803D01*
X419047Y547755D01*
X419044Y547683D01*
X419031Y547612D01*
X419039Y547561D01*
X419037Y547509D01*
X419056Y547440D01*
X419067Y547369D01*
X419091Y547323D01*
X419105Y547273D01*
X419146Y547214D01*
X419178Y547150D01*
X419216Y547113D01*
X419245Y547071D01*
X419303Y547028D01*
X419354Y546978D01*
X419417Y546943D01*
X419443Y546924D01*
X419465Y546917D01*
X419501Y546897D01*
X420390Y546528D01*
X424248Y542670D01*
X426337Y537628D01*
X426337Y532172D01*
X424248Y527130D01*
X420390Y523272D01*
X419501Y522903D01*
X419440Y522866D01*
X419375Y522836D01*
X419336Y522801D01*
X419292Y522774D01*
X419246Y522719D01*
X419193Y522670D01*
X419168Y522624D01*
X419135Y522584D01*
X419109Y522517D01*
X419075Y522454D01*
X419066Y522403D01*
X419047Y522355D01*
X419044Y522283D01*
X419031Y522212D01*
X419039Y522161D01*
X419037Y522109D01*
X419056Y522040D01*
X419067Y521969D01*
X419091Y521923D01*
X419105Y521873D01*
X419146Y521814D01*
X419178Y521750D01*
X419216Y521713D01*
X419245Y521671D01*
X419303Y521628D01*
X419354Y521578D01*
X419417Y521543D01*
X419443Y521524D01*
X419465Y521517D01*
X419501Y521497D01*
X420390Y521128D01*
X424248Y517270D01*
X426337Y512228D01*
X426337Y506772D01*
X424248Y501730D01*
X420390Y497872D01*
X415348Y495783D01*
X394652Y495783D01*
X389610Y497872D01*
X385752Y501730D01*
X383663Y506772D01*
X383663Y512228D01*
X385752Y517270D01*
X389610Y521128D01*
X390499Y521497D01*
X390560Y521534D01*
X390625Y521564D01*
X390664Y521599D01*
X390708Y521626D01*
X390754Y521682D01*
X390807Y521730D01*
X390832Y521776D01*
X390865Y521816D01*
X390891Y521883D01*
X390925Y521946D01*
X390934Y521997D01*
X390953Y522045D01*
X390956Y522117D01*
X390969Y522188D01*
X390961Y522239D01*
X390963Y522291D01*
X390944Y522360D01*
X390933Y522431D01*
X390909Y522477D01*
X390895Y522527D01*
X390854Y522586D01*
X390822Y522650D01*
X390784Y522687D01*
X390755Y522729D01*
X390697Y522772D01*
X390646Y522822D01*
X390583Y522857D01*
X390557Y522876D01*
X390535Y522884D01*
X390499Y522903D01*
X389610Y523272D01*
X385752Y527130D01*
X383663Y532172D01*
X383663Y537628D01*
X385752Y542670D01*
X389610Y546528D01*
X390499Y546897D01*
X390560Y546934D01*
X390625Y546964D01*
X390664Y546999D01*
X390708Y547026D01*
X390754Y547082D01*
X390807Y547130D01*
X390832Y547176D01*
X390865Y547216D01*
X390891Y547283D01*
X390925Y547346D01*
X390934Y547397D01*
X390953Y547445D01*
X390956Y547517D01*
X390969Y547588D01*
X390961Y547639D01*
X390963Y547691D01*
X390944Y547760D01*
X390933Y547831D01*
X390909Y547877D01*
X390908Y547882D01*
X390908Y547883D01*
X390895Y547927D01*
X390854Y547986D01*
X390822Y548050D01*
X390789Y548082D01*
X390782Y548094D01*
X390776Y548099D01*
X390755Y548129D01*
X390697Y548172D01*
X390646Y548222D01*
X390606Y548244D01*
X390595Y548254D01*
X390578Y548261D01*
X390557Y548276D01*
X390535Y548284D01*
X390499Y548303D01*
X389610Y548672D01*
X385752Y552530D01*
X383663Y557572D01*
X383663Y563028D01*
X385752Y568070D01*
X389610Y571928D01*
X390499Y572297D01*
X390560Y572334D01*
X390625Y572364D01*
X390664Y572399D01*
X390708Y572426D01*
X390754Y572482D01*
X390807Y572530D01*
X390832Y572576D01*
X390865Y572616D01*
X390891Y572683D01*
X390925Y572746D01*
X390934Y572797D01*
X390953Y572845D01*
X390956Y572917D01*
X390969Y572988D01*
X390961Y573039D01*
X390963Y573091D01*
X390944Y573160D01*
X390933Y573231D01*
X390909Y573277D01*
X390895Y573327D01*
X390854Y573386D01*
X390822Y573450D01*
X390784Y573487D01*
X390755Y573529D01*
X390697Y573572D01*
X390646Y573622D01*
X390583Y573657D01*
X390557Y573676D01*
X390535Y573684D01*
X390499Y573703D01*
X389610Y574072D01*
X385752Y577930D01*
X383663Y582972D01*
X383663Y588428D01*
X385752Y593470D01*
X389610Y597328D01*
X390499Y597697D01*
X390560Y597734D01*
X390625Y597764D01*
X390664Y597799D01*
X390708Y597826D01*
X390754Y597881D01*
X390807Y597930D01*
X390832Y597976D01*
X390865Y598016D01*
X390891Y598083D01*
X390925Y598146D01*
X390934Y598197D01*
X390953Y598245D01*
X390956Y598317D01*
X390969Y598388D01*
X390961Y598439D01*
X390963Y598491D01*
X390944Y598560D01*
X390933Y598631D01*
X390909Y598677D01*
X390895Y598727D01*
X390854Y598786D01*
X390822Y598850D01*
X390784Y598887D01*
X390755Y598929D01*
X390697Y598972D01*
X390646Y599022D01*
X390583Y599057D01*
X390557Y599076D01*
X390535Y599083D01*
X390499Y599103D01*
X389610Y599472D01*
X385752Y603330D01*
X383663Y608372D01*
X383663Y613828D01*
X385752Y618870D01*
X389610Y622728D01*
X390499Y623097D01*
X390560Y623134D01*
X390625Y623164D01*
X390664Y623199D01*
X390708Y623226D01*
X390754Y623282D01*
X390807Y623330D01*
X390832Y623376D01*
X390865Y623416D01*
X390891Y623483D01*
X390925Y623546D01*
X390934Y623597D01*
X390953Y623645D01*
X390956Y623717D01*
X390969Y623788D01*
X390961Y623839D01*
X390963Y623891D01*
X390943Y623960D01*
X390933Y624031D01*
X390909Y624077D01*
X390895Y624127D01*
X390854Y624186D01*
X390822Y624250D01*
X390784Y624287D01*
X390755Y624329D01*
X390697Y624372D01*
X390646Y624422D01*
X390583Y624457D01*
X390557Y624476D01*
X390535Y624483D01*
X390499Y624503D01*
X389610Y624872D01*
X388245Y626236D01*
X388229Y626248D01*
X388217Y626263D01*
X388129Y626320D01*
X388046Y626380D01*
X388027Y626386D01*
X388010Y626396D01*
X387909Y626422D01*
X387811Y626452D01*
X387791Y626452D01*
X387771Y626456D01*
X387668Y626448D01*
X387565Y626446D01*
X387546Y626439D01*
X387526Y626437D01*
X387431Y626397D01*
X387334Y626361D01*
X387318Y626349D01*
X387300Y626341D01*
X387169Y626236D01*
X380368Y619435D01*
X380315Y619361D01*
X380255Y619292D01*
X380243Y619262D01*
X380224Y619235D01*
X380197Y619148D01*
X380163Y619064D01*
X380159Y619023D01*
X380152Y619000D01*
X380153Y618968D01*
X380145Y618897D01*
X380145Y240692D01*
X380159Y240602D01*
X380167Y240511D01*
X380179Y240481D01*
X380184Y240449D01*
X380227Y240369D01*
X380263Y240285D01*
X380289Y240253D01*
X380300Y240232D01*
X380323Y240210D01*
X380368Y240154D01*
X382103Y238419D01*
X384097Y233605D01*
X384097Y228395D01*
X382103Y223581D01*
X378419Y219897D01*
X373605Y217903D01*
X368395Y217903D01*
X363581Y219897D01*
X359897Y223581D01*
X357903Y228395D01*
X357903Y233605D01*
X359897Y238419D01*
X361632Y240154D01*
X361685Y240228D01*
X361745Y240297D01*
X361757Y240327D01*
X361776Y240354D01*
X361803Y240441D01*
X361837Y240525D01*
X361841Y240566D01*
X361848Y240589D01*
X361847Y240621D01*
X361855Y240692D01*
X361855Y624819D01*
X363247Y628180D01*
X379820Y644753D01*
X383181Y646145D01*
X387311Y646145D01*
X387401Y646159D01*
X387492Y646167D01*
X387522Y646179D01*
X387554Y646184D01*
X387634Y646227D01*
X387718Y646263D01*
X387750Y646289D01*
X387771Y646300D01*
X387793Y646323D01*
X387849Y646368D01*
X389610Y648128D01*
X390499Y648497D01*
X390560Y648534D01*
X390625Y648564D01*
X390664Y648599D01*
X390708Y648626D01*
X390754Y648682D01*
X390807Y648730D01*
X390832Y648776D01*
X390865Y648816D01*
X390891Y648883D01*
X390925Y648946D01*
X390934Y648997D01*
X390953Y649045D01*
X390956Y649117D01*
X390969Y649188D01*
X390961Y649239D01*
X390963Y649291D01*
X390943Y649360D01*
X390933Y649431D01*
X390909Y649477D01*
X390895Y649527D01*
X390854Y649586D01*
X390822Y649650D01*
X390784Y649687D01*
X390755Y649729D01*
X390697Y649772D01*
X390646Y649822D01*
X390583Y649857D01*
X390557Y649876D01*
X390535Y649883D01*
X390499Y649903D01*
X389610Y650272D01*
X385752Y654130D01*
X383663Y659172D01*
X383663Y664628D01*
X385752Y669670D01*
X389610Y673528D01*
X390499Y673897D01*
X390560Y673934D01*
X390625Y673964D01*
X390664Y673999D01*
X390708Y674026D01*
X390754Y674082D01*
X390807Y674130D01*
X390832Y674176D01*
X390865Y674216D01*
X390891Y674283D01*
X390925Y674346D01*
X390934Y674397D01*
X390953Y674445D01*
X390956Y674517D01*
X390969Y674588D01*
X390961Y674639D01*
X390963Y674691D01*
X390944Y674760D01*
X390933Y674831D01*
X390909Y674877D01*
X390895Y674927D01*
X390854Y674986D01*
X390822Y675050D01*
X390784Y675087D01*
X390755Y675129D01*
X390697Y675172D01*
X390646Y675222D01*
X390583Y675257D01*
X390557Y675276D01*
X390535Y675284D01*
X390499Y675303D01*
X389610Y675672D01*
X385752Y679530D01*
X383663Y684572D01*
X383663Y690028D01*
X385752Y695070D01*
X389610Y698928D01*
X390499Y699297D01*
X390560Y699334D01*
X390625Y699364D01*
X390664Y699399D01*
X390708Y699426D01*
X390754Y699482D01*
X390807Y699530D01*
X390832Y699576D01*
X390865Y699616D01*
X390891Y699683D01*
X390925Y699746D01*
X390934Y699797D01*
X390953Y699845D01*
X390956Y699917D01*
X390969Y699988D01*
X390961Y700039D01*
X390963Y700091D01*
X390944Y700160D01*
X390933Y700231D01*
X390909Y700277D01*
X390895Y700327D01*
X390854Y700386D01*
X390822Y700450D01*
X390784Y700487D01*
X390755Y700529D01*
X390697Y700572D01*
X390646Y700622D01*
X390583Y700657D01*
X390557Y700676D01*
X390535Y700684D01*
X390499Y700703D01*
X389610Y701072D01*
X385752Y704930D01*
X383663Y709972D01*
X383663Y715428D01*
X385752Y720470D01*
X389610Y724328D01*
X390499Y724697D01*
X390560Y724734D01*
X390625Y724764D01*
X390664Y724799D01*
X390708Y724826D01*
X390754Y724882D01*
X390807Y724930D01*
X390832Y724976D01*
X390865Y725016D01*
X390891Y725083D01*
X390925Y725146D01*
X390934Y725197D01*
X390953Y725245D01*
X390956Y725317D01*
X390969Y725388D01*
X390961Y725439D01*
X390963Y725491D01*
X390944Y725560D01*
X390933Y725631D01*
X390909Y725677D01*
X390895Y725727D01*
X390854Y725786D01*
X390822Y725850D01*
X390784Y725887D01*
X390755Y725929D01*
X390697Y725972D01*
X390646Y726022D01*
X390583Y726057D01*
X390557Y726076D01*
X390535Y726084D01*
X390499Y726103D01*
X389610Y726472D01*
X385752Y730330D01*
X383663Y735372D01*
X383663Y740828D01*
X385752Y745870D01*
X389610Y749728D01*
X390499Y750097D01*
X390560Y750134D01*
X390625Y750164D01*
X390664Y750199D01*
X390708Y750226D01*
X390754Y750282D01*
X390807Y750330D01*
X390832Y750376D01*
X390865Y750416D01*
X390891Y750483D01*
X390925Y750546D01*
X390934Y750597D01*
X390953Y750645D01*
X390956Y750717D01*
X390969Y750788D01*
X390961Y750839D01*
X390963Y750891D01*
X390944Y750960D01*
X390933Y751031D01*
X390909Y751077D01*
X390895Y751127D01*
X390854Y751186D01*
X390822Y751250D01*
X390784Y751287D01*
X390755Y751329D01*
X390697Y751372D01*
X390646Y751422D01*
X390583Y751457D01*
X390557Y751476D01*
X390535Y751484D01*
X390499Y751503D01*
X389610Y751872D01*
X385752Y755730D01*
X383663Y760772D01*
X383663Y766228D01*
X385752Y771270D01*
X389610Y775128D01*
X390499Y775497D01*
X390560Y775534D01*
X390625Y775564D01*
X390664Y775599D01*
X390708Y775626D01*
X390754Y775682D01*
X390807Y775730D01*
X390832Y775776D01*
X390865Y775816D01*
X390891Y775883D01*
X390925Y775946D01*
X390934Y775997D01*
X390953Y776045D01*
X390956Y776117D01*
X390969Y776188D01*
X390961Y776239D01*
X390963Y776291D01*
X390944Y776360D01*
X390933Y776431D01*
X390909Y776477D01*
X390895Y776527D01*
X390854Y776586D01*
X390822Y776650D01*
X390784Y776687D01*
X390755Y776729D01*
X390697Y776772D01*
X390646Y776822D01*
X390583Y776857D01*
X390557Y776876D01*
X390535Y776884D01*
X390499Y776903D01*
X389610Y777272D01*
X385752Y781130D01*
X383663Y786172D01*
X383663Y791628D01*
X385752Y796670D01*
X389610Y800528D01*
X390499Y800897D01*
X390560Y800934D01*
X390625Y800964D01*
X390664Y800999D01*
X390708Y801026D01*
X390754Y801082D01*
X390807Y801130D01*
X390832Y801176D01*
X390865Y801216D01*
X390891Y801283D01*
X390925Y801346D01*
X390934Y801397D01*
X390953Y801445D01*
X390956Y801517D01*
X390969Y801588D01*
X390961Y801639D01*
X390963Y801691D01*
X390944Y801760D01*
X390933Y801831D01*
X390909Y801877D01*
X390895Y801927D01*
X390854Y801986D01*
X390822Y802050D01*
X390784Y802087D01*
X390755Y802129D01*
X390697Y802172D01*
X390646Y802222D01*
X390583Y802257D01*
X390557Y802276D01*
X390535Y802284D01*
X390499Y802303D01*
X389610Y802672D01*
X385752Y806530D01*
X383663Y811572D01*
X383663Y817028D01*
X385752Y822070D01*
X389610Y825928D01*
X390499Y826297D01*
X390560Y826334D01*
X390625Y826364D01*
X390664Y826399D01*
X390708Y826426D01*
X390754Y826482D01*
X390807Y826530D01*
X390832Y826576D01*
X390865Y826616D01*
X390891Y826683D01*
X390925Y826746D01*
X390934Y826797D01*
X390953Y826845D01*
X390956Y826917D01*
X390969Y826988D01*
X390961Y827039D01*
X390963Y827091D01*
X390944Y827160D01*
X390933Y827231D01*
X390909Y827277D01*
X390895Y827327D01*
X390854Y827386D01*
X390822Y827450D01*
X390784Y827487D01*
X390755Y827529D01*
X390697Y827572D01*
X390646Y827622D01*
X390583Y827657D01*
X390557Y827676D01*
X390535Y827684D01*
X390499Y827703D01*
X389610Y828072D01*
X385752Y831930D01*
X383663Y836972D01*
X383663Y842428D01*
X385752Y847470D01*
X389610Y851328D01*
X394652Y853417D01*
X415348Y853417D01*
X420390Y851328D01*
X424248Y847470D01*
X426337Y842428D01*
X426337Y836972D01*
X424248Y831930D01*
X420390Y828072D01*
X419501Y827703D01*
X419440Y827666D01*
X419375Y827636D01*
X419336Y827601D01*
X419292Y827574D01*
X419246Y827519D01*
X419193Y827470D01*
X419168Y827424D01*
X419135Y827384D01*
X419109Y827317D01*
X419075Y827254D01*
X419066Y827203D01*
X419047Y827155D01*
X419044Y827083D01*
X419031Y827012D01*
X419039Y826961D01*
X419037Y826909D01*
X419056Y826840D01*
X419067Y826769D01*
X419091Y826723D01*
X419105Y826673D01*
X419146Y826614D01*
X419178Y826550D01*
X419216Y826513D01*
X419245Y826471D01*
X419303Y826428D01*
X419354Y826378D01*
X419417Y826343D01*
X419443Y826324D01*
X419465Y826317D01*
X419501Y826297D01*
X420390Y825928D01*
X424248Y822070D01*
X426337Y817028D01*
X426337Y811572D01*
X424248Y806530D01*
X420390Y802672D01*
X419501Y802303D01*
X419440Y802266D01*
X419375Y802236D01*
X419336Y802201D01*
X419292Y802174D01*
X419246Y802119D01*
X419193Y802070D01*
X419168Y802024D01*
X419135Y801984D01*
X419109Y801917D01*
X419075Y801854D01*
X419066Y801803D01*
X419047Y801755D01*
X419044Y801683D01*
X419031Y801612D01*
X419039Y801561D01*
X419037Y801509D01*
X419056Y801440D01*
X419067Y801369D01*
X419091Y801323D01*
X419105Y801273D01*
X419146Y801214D01*
X419178Y801150D01*
X419216Y801113D01*
X419245Y801071D01*
X419303Y801028D01*
X419354Y800978D01*
X419417Y800943D01*
X419443Y800924D01*
X419465Y800917D01*
X419501Y800897D01*
X420390Y800528D01*
X424248Y796670D01*
X426337Y791628D01*
X426337Y786172D01*
X424248Y781130D01*
X420390Y777272D01*
X419501Y776903D01*
X419440Y776866D01*
X419375Y776836D01*
X419336Y776801D01*
X419292Y776774D01*
X419246Y776719D01*
X419193Y776670D01*
X419168Y776624D01*
X419135Y776584D01*
X419109Y776517D01*
X419075Y776454D01*
X419066Y776403D01*
X419047Y776355D01*
X419044Y776283D01*
X419031Y776212D01*
X419039Y776161D01*
X419037Y776109D01*
X419056Y776040D01*
X419067Y775969D01*
X419091Y775923D01*
X419105Y775873D01*
X419146Y775814D01*
X419178Y775750D01*
X419216Y775713D01*
X419245Y775671D01*
X419303Y775628D01*
X419354Y775578D01*
X419417Y775543D01*
X419443Y775524D01*
X419465Y775517D01*
X419501Y775497D01*
X420390Y775128D01*
X424248Y771270D01*
X426337Y766228D01*
X426337Y760772D01*
X424248Y755730D01*
X420390Y751872D01*
X419501Y751503D01*
X419440Y751466D01*
X419375Y751436D01*
X419336Y751401D01*
X419292Y751374D01*
X419246Y751319D01*
X419193Y751270D01*
X419168Y751224D01*
X419135Y751184D01*
X419109Y751117D01*
X419075Y751054D01*
X419066Y751003D01*
X419047Y750955D01*
X419044Y750883D01*
X419031Y750812D01*
X419039Y750761D01*
X419037Y750709D01*
X419056Y750640D01*
X419067Y750569D01*
X419091Y750523D01*
X419105Y750473D01*
X419146Y750414D01*
X419178Y750350D01*
X419216Y750313D01*
X419245Y750271D01*
X419303Y750228D01*
X419354Y750178D01*
X419417Y750143D01*
X419443Y750124D01*
X419465Y750117D01*
X419501Y750097D01*
X420390Y749728D01*
X424248Y745870D01*
X426337Y740828D01*
X426337Y735372D01*
X424248Y730330D01*
X420390Y726472D01*
X419501Y726103D01*
X419440Y726066D01*
X419375Y726036D01*
X419336Y726001D01*
X419292Y725974D01*
X419246Y725919D01*
X419193Y725870D01*
X419168Y725824D01*
X419135Y725784D01*
X419109Y725717D01*
X419075Y725654D01*
X419066Y725603D01*
X419047Y725555D01*
X419044Y725483D01*
X419031Y725412D01*
X419039Y725361D01*
X419037Y725309D01*
X419056Y725240D01*
X419067Y725169D01*
X419091Y725123D01*
X419105Y725073D01*
X419146Y725014D01*
X419178Y724950D01*
X419216Y724913D01*
X419245Y724871D01*
X419303Y724828D01*
X419354Y724778D01*
X419417Y724743D01*
X419443Y724724D01*
X419465Y724717D01*
X419501Y724697D01*
X420390Y724328D01*
X424248Y720470D01*
X426337Y715428D01*
X426337Y709972D01*
X424248Y704930D01*
X420390Y701072D01*
X419501Y700703D01*
X419440Y700666D01*
X419375Y700636D01*
X419336Y700601D01*
X419292Y700574D01*
X419246Y700519D01*
X419193Y700470D01*
X419168Y700424D01*
X419135Y700384D01*
X419109Y700317D01*
X419075Y700254D01*
X419066Y700203D01*
X419047Y700155D01*
X419044Y700083D01*
X419031Y700012D01*
X419039Y699961D01*
X419037Y699909D01*
X419056Y699840D01*
X419067Y699769D01*
X419091Y699723D01*
X419105Y699673D01*
X419146Y699614D01*
X419178Y699550D01*
X419216Y699513D01*
X419245Y699471D01*
X419303Y699428D01*
X419354Y699378D01*
X419417Y699343D01*
X419443Y699324D01*
X419465Y699317D01*
X419501Y699297D01*
X420390Y698928D01*
X424248Y695070D01*
X426337Y690028D01*
X426337Y684572D01*
X424248Y679530D01*
X420390Y675672D01*
X419501Y675303D01*
X419440Y675266D01*
X419375Y675236D01*
X419336Y675201D01*
X419292Y675174D01*
X419246Y675119D01*
X419193Y675070D01*
X419168Y675024D01*
X419135Y674984D01*
X419109Y674917D01*
X419075Y674854D01*
X419066Y674803D01*
X419047Y674755D01*
X419044Y674683D01*
X419031Y674612D01*
X419039Y674561D01*
X419037Y674509D01*
X419056Y674440D01*
X419067Y674369D01*
X419091Y674323D01*
X419105Y674273D01*
X419146Y674214D01*
X419178Y674150D01*
X419216Y674113D01*
X419245Y674071D01*
X419303Y674028D01*
X419354Y673978D01*
X419417Y673943D01*
X419443Y673924D01*
X419465Y673917D01*
X419501Y673897D01*
X420390Y673528D01*
X424248Y669670D01*
X426337Y664628D01*
X426337Y659172D01*
X424248Y654130D01*
X420390Y650272D01*
X419501Y649903D01*
X419440Y649866D01*
X419375Y649836D01*
X419336Y649801D01*
X419292Y649774D01*
X419246Y649719D01*
X419193Y649670D01*
X419168Y649624D01*
X419135Y649584D01*
X419109Y649517D01*
X419075Y649454D01*
X419066Y649403D01*
X419047Y649355D01*
X419044Y649283D01*
X419031Y649212D01*
X419039Y649161D01*
X419037Y649109D01*
X419057Y649040D01*
X419067Y648969D01*
X419091Y648923D01*
X419105Y648873D01*
X419146Y648814D01*
X419178Y648750D01*
X419216Y648713D01*
X419245Y648671D01*
X419303Y648628D01*
X419354Y648578D01*
X419417Y648543D01*
X419443Y648524D01*
X419465Y648517D01*
X419501Y648497D01*
X420390Y648128D01*
X424248Y644270D01*
X426337Y639228D01*
X426337Y633772D01*
X424248Y628730D01*
X420390Y624872D01*
X419501Y624503D01*
X419440Y624466D01*
X419375Y624436D01*
X419336Y624401D01*
X419292Y624374D01*
X419246Y624319D01*
X419193Y624270D01*
X419168Y624224D01*
X419135Y624184D01*
X419109Y624117D01*
X419075Y624054D01*
X419066Y624003D01*
X419047Y623955D01*
X419044Y623883D01*
X419031Y623812D01*
X419039Y623761D01*
X419037Y623709D01*
X419057Y623640D01*
X419067Y623569D01*
X419091Y623523D01*
X419105Y623473D01*
X419146Y623414D01*
X419178Y623350D01*
X419216Y623313D01*
X419245Y623271D01*
X419303Y623228D01*
X419354Y623178D01*
X419417Y623143D01*
X419443Y623124D01*
X419465Y623117D01*
X419501Y623097D01*
X420390Y622728D01*
X424248Y618870D01*
X426337Y613828D01*
X426337Y608372D01*
X424248Y603330D01*
X420390Y599472D01*
X419501Y599103D01*
X419440Y599066D01*
X419375Y599036D01*
X419336Y599001D01*
X419292Y598974D01*
X419246Y598918D01*
X419193Y598870D01*
X419168Y598824D01*
X419135Y598784D01*
X419109Y598717D01*
X419075Y598654D01*
X419066Y598603D01*
X419047Y598555D01*
X419044Y598483D01*
X419031Y598412D01*
X419039Y598361D01*
X419037Y598309D01*
X419056Y598240D01*
X419067Y598169D01*
X419091Y598123D01*
X419105Y598073D01*
X419146Y598014D01*
X419178Y597950D01*
X419216Y597913D01*
X419245Y597871D01*
X419303Y597828D01*
X419354Y597778D01*
X419417Y597743D01*
X419443Y597724D01*
X419465Y597716D01*
X419501Y597697D01*
X420390Y597328D01*
X423667Y594052D01*
X423741Y593999D01*
X423810Y593939D01*
X423840Y593927D01*
X423866Y593908D01*
X423953Y593881D01*
X424038Y593847D01*
X424079Y593843D01*
X424102Y593836D01*
X424134Y593837D01*
X424205Y593829D01*
X515917Y593829D01*
X518905Y592591D01*
X552991Y558505D01*
X554229Y555517D01*
X554229Y108712D01*
X554243Y108622D01*
X554251Y108531D01*
X554263Y108501D01*
X554268Y108469D01*
X554311Y108388D01*
X554347Y108304D01*
X554373Y108272D01*
X554384Y108252D01*
X554407Y108230D01*
X554452Y108174D01*
X557661Y104965D01*
X558097Y103912D01*
X558134Y103851D01*
X558164Y103785D01*
X558199Y103747D01*
X558226Y103703D01*
X558282Y103657D01*
X558330Y103604D01*
X558376Y103579D01*
X558416Y103546D01*
X558483Y103520D01*
X558546Y103486D01*
X558597Y103476D01*
X558645Y103458D01*
X558717Y103455D01*
X558788Y103442D01*
X558839Y103450D01*
X558891Y103447D01*
X558960Y103467D01*
X559031Y103478D01*
X559077Y103501D01*
X559127Y103516D01*
X559186Y103557D01*
X559250Y103589D01*
X559287Y103626D01*
X559329Y103656D01*
X559372Y103714D01*
X559422Y103765D01*
X559457Y103828D01*
X559476Y103854D01*
X559483Y103876D01*
X559503Y103912D01*
X559939Y104965D01*
X562132Y107158D01*
X562185Y107231D01*
X562245Y107301D01*
X562257Y107331D01*
X562276Y107357D01*
X562303Y107444D01*
X562337Y107529D01*
X562341Y107570D01*
X562348Y107592D01*
X562347Y107625D01*
X562355Y107696D01*
X562355Y268319D01*
X563747Y271680D01*
X577140Y285073D01*
X579820Y287753D01*
X583181Y289145D01*
X610535Y289145D01*
X610625Y289159D01*
X610716Y289167D01*
X610746Y289179D01*
X610778Y289184D01*
X610858Y289227D01*
X610942Y289263D01*
X610974Y289289D01*
X610995Y289300D01*
X611017Y289323D01*
X611073Y289368D01*
X613267Y291562D01*
X613279Y291578D01*
X613294Y291590D01*
X613351Y291678D01*
X613411Y291761D01*
X613417Y291780D01*
X613427Y291797D01*
X613453Y291898D01*
X613483Y291997D01*
X613483Y292016D01*
X613488Y292036D01*
X613480Y292139D01*
X613477Y292242D01*
X613470Y292261D01*
X613468Y292281D01*
X613428Y292376D01*
X613392Y292473D01*
X613380Y292489D01*
X613372Y292507D01*
X613267Y292638D01*
X607313Y298592D01*
X607313Y311008D01*
X613267Y316962D01*
X613279Y316978D01*
X613294Y316990D01*
X613351Y317078D01*
X613411Y317161D01*
X613417Y317180D01*
X613427Y317197D01*
X613453Y317298D01*
X613483Y317397D01*
X613483Y317416D01*
X613488Y317436D01*
X613480Y317539D01*
X613477Y317642D01*
X613470Y317661D01*
X613468Y317681D01*
X613428Y317776D01*
X613392Y317873D01*
X613380Y317889D01*
X613372Y317907D01*
X613267Y318038D01*
X611689Y319616D01*
X611615Y319669D01*
X611546Y319729D01*
X611516Y319741D01*
X611490Y319760D01*
X611403Y319787D01*
X611318Y319821D01*
X611277Y319825D01*
X611254Y319832D01*
X611222Y319831D01*
X611151Y319839D01*
X602979Y319839D01*
X599244Y321386D01*
X586386Y334244D01*
X584839Y337979D01*
X584839Y875476D01*
X584825Y875566D01*
X584817Y875657D01*
X584805Y875687D01*
X584800Y875719D01*
X584757Y875799D01*
X584721Y875883D01*
X584695Y875915D01*
X584684Y875936D01*
X584661Y875958D01*
X584616Y876014D01*
X529714Y930916D01*
X529640Y930969D01*
X529571Y931029D01*
X529541Y931041D01*
X529514Y931060D01*
X529428Y931087D01*
X529343Y931121D01*
X529302Y931125D01*
X529279Y931132D01*
X529247Y931131D01*
X529176Y931139D01*
X422173Y931139D01*
X422083Y931125D01*
X421992Y931117D01*
X421962Y931105D01*
X421930Y931100D01*
X421850Y931057D01*
X421766Y931021D01*
X421733Y930995D01*
X421713Y930984D01*
X421691Y930961D01*
X421635Y930916D01*
X420390Y929672D01*
X415348Y927583D01*
X394652Y927583D01*
X389610Y929672D01*
X385752Y933530D01*
X383663Y938572D01*
X383663Y944028D01*
X385752Y949070D01*
X389610Y952928D01*
X394652Y955017D01*
X415348Y955017D01*
X420390Y952928D01*
X421635Y951684D01*
X421709Y951631D01*
X421778Y951571D01*
X421808Y951559D01*
X421834Y951540D01*
X421921Y951513D01*
X422006Y951479D01*
X422047Y951475D01*
X422070Y951468D01*
X422102Y951469D01*
X422173Y951461D01*
X535721Y951461D01*
X539456Y949914D01*
X603614Y885756D01*
X605161Y882021D01*
X605161Y344524D01*
X605175Y344434D01*
X605183Y344343D01*
X605195Y344313D01*
X605200Y344281D01*
X605243Y344201D01*
X605279Y344117D01*
X605305Y344085D01*
X605316Y344064D01*
X605339Y344042D01*
X605384Y343986D01*
X608986Y340384D01*
X609060Y340331D01*
X609129Y340271D01*
X609159Y340259D01*
X609186Y340240D01*
X609272Y340213D01*
X609357Y340179D01*
X609398Y340175D01*
X609421Y340168D01*
X609453Y340169D01*
X609524Y340161D01*
X610751Y340161D01*
X610841Y340175D01*
X610932Y340183D01*
X610962Y340195D01*
X610994Y340200D01*
X611074Y340243D01*
X611158Y340279D01*
X611190Y340305D01*
X611211Y340316D01*
X611233Y340339D01*
X611289Y340384D01*
X615782Y344876D01*
X615793Y344892D01*
X615809Y344905D01*
X615865Y344992D01*
X615925Y345076D01*
X615931Y345095D01*
X615942Y345112D01*
X615967Y345212D01*
X615998Y345311D01*
X615997Y345331D01*
X616002Y345350D01*
X615994Y345453D01*
X615991Y345557D01*
X615984Y345576D01*
X615983Y345595D01*
X615943Y345690D01*
X615907Y345788D01*
X615894Y345804D01*
X615887Y345822D01*
X615782Y345953D01*
X610869Y350865D01*
X610869Y354077D01*
X621538Y354077D01*
X621558Y354080D01*
X621577Y354078D01*
X621679Y354100D01*
X621781Y354117D01*
X621798Y354126D01*
X621818Y354130D01*
X621907Y354183D01*
X621998Y354232D01*
X622012Y354246D01*
X622029Y354256D01*
X622096Y354335D01*
X622167Y354410D01*
X622176Y354428D01*
X622189Y354443D01*
X622227Y354539D01*
X622271Y354633D01*
X622273Y354653D01*
X622281Y354671D01*
X622299Y354838D01*
X622299Y355601D01*
X622301Y355601D01*
X622301Y354838D01*
X622304Y354818D01*
X622302Y354799D01*
X622324Y354697D01*
X622341Y354595D01*
X622350Y354578D01*
X622354Y354558D01*
X622407Y354469D01*
X622456Y354378D01*
X622470Y354364D01*
X622480Y354347D01*
X622559Y354280D01*
X622634Y354209D01*
X622652Y354200D01*
X622667Y354187D01*
X622763Y354148D01*
X622857Y354105D01*
X622877Y354103D01*
X622895Y354095D01*
X623062Y354077D01*
X633731Y354077D01*
X633731Y350865D01*
X628818Y345953D01*
X628807Y345937D01*
X628791Y345924D01*
X628735Y345837D01*
X628675Y345753D01*
X628669Y345734D01*
X628658Y345717D01*
X628633Y345617D01*
X628602Y345518D01*
X628603Y345498D01*
X628598Y345479D01*
X628606Y345376D01*
X628609Y345272D01*
X628616Y345253D01*
X628617Y345233D01*
X628657Y345139D01*
X628693Y345041D01*
X628706Y345025D01*
X628713Y345007D01*
X628818Y344876D01*
X633111Y340584D01*
X633185Y340531D01*
X633254Y340471D01*
X633284Y340459D01*
X633310Y340440D01*
X633397Y340413D01*
X633482Y340379D01*
X633523Y340375D01*
X633546Y340368D01*
X633578Y340369D01*
X633649Y340361D01*
X700521Y340361D01*
X704256Y338814D01*
X733014Y310056D01*
X733072Y310014D01*
X733124Y309964D01*
X733171Y309942D01*
X733213Y309912D01*
X733282Y309891D01*
X733347Y309861D01*
X733399Y309855D01*
X733449Y309840D01*
X733520Y309842D01*
X733591Y309834D01*
X733642Y309845D01*
X733694Y309846D01*
X733762Y309871D01*
X733832Y309886D01*
X733877Y309913D01*
X733925Y309931D01*
X733981Y309975D01*
X734043Y310012D01*
X734077Y310052D01*
X734117Y310084D01*
X734156Y310145D01*
X734203Y310199D01*
X734222Y310247D01*
X734250Y310291D01*
X734268Y310361D01*
X734295Y310427D01*
X734303Y310499D01*
X734311Y310530D01*
X734309Y310553D01*
X734313Y310594D01*
X734313Y311008D01*
X740267Y316962D01*
X740279Y316978D01*
X740294Y316990D01*
X740351Y317078D01*
X740411Y317161D01*
X740417Y317180D01*
X740427Y317197D01*
X740453Y317298D01*
X740483Y317397D01*
X740483Y317416D01*
X740488Y317436D01*
X740480Y317539D01*
X740477Y317642D01*
X740470Y317661D01*
X740468Y317681D01*
X740428Y317776D01*
X740392Y317873D01*
X740380Y317889D01*
X740372Y317907D01*
X740267Y318038D01*
X734313Y323992D01*
X734313Y336408D01*
X740267Y342362D01*
X740279Y342378D01*
X740294Y342390D01*
X740351Y342478D01*
X740411Y342561D01*
X740417Y342580D01*
X740427Y342597D01*
X740453Y342698D01*
X740483Y342797D01*
X740483Y342816D01*
X740488Y342836D01*
X740480Y342939D01*
X740477Y343042D01*
X740470Y343061D01*
X740468Y343081D01*
X740428Y343176D01*
X740392Y343273D01*
X740380Y343289D01*
X740372Y343307D01*
X740267Y343438D01*
X734313Y349392D01*
X734313Y361808D01*
X740948Y368443D01*
X741001Y368517D01*
X741061Y368586D01*
X741073Y368616D01*
X741092Y368642D01*
X741119Y368729D01*
X741153Y368814D01*
X741157Y368855D01*
X741164Y368878D01*
X741163Y368910D01*
X741171Y368981D01*
X741171Y600917D01*
X742409Y603905D01*
X781895Y643391D01*
X784883Y644629D01*
X821795Y644629D01*
X821885Y644643D01*
X821976Y644651D01*
X822006Y644663D01*
X822038Y644668D01*
X822118Y644711D01*
X822202Y644747D01*
X822235Y644773D01*
X822255Y644784D01*
X822277Y644807D01*
X822333Y644852D01*
X825610Y648128D01*
X830652Y650217D01*
X851348Y650217D01*
X856390Y648128D01*
X860248Y644270D01*
X862337Y639228D01*
X862337Y633772D01*
X860248Y628730D01*
X856390Y624872D01*
X855501Y624503D01*
X855440Y624466D01*
X855375Y624436D01*
X855336Y624401D01*
X855292Y624374D01*
X855246Y624319D01*
X855193Y624270D01*
X855168Y624224D01*
X855135Y624184D01*
X855109Y624117D01*
X855075Y624054D01*
X855066Y624003D01*
X855047Y623955D01*
X855044Y623883D01*
X855031Y623812D01*
X855039Y623761D01*
X855037Y623709D01*
X855056Y623640D01*
X855067Y623569D01*
X855091Y623523D01*
X855105Y623473D01*
X855146Y623414D01*
X855178Y623350D01*
X855216Y623313D01*
X855245Y623271D01*
X855303Y623228D01*
X855354Y623178D01*
X855417Y623143D01*
X855443Y623124D01*
X855465Y623117D01*
X855501Y623097D01*
X856390Y622728D01*
X860248Y618870D01*
X862337Y613828D01*
X862337Y608372D01*
X860248Y603330D01*
X856390Y599472D01*
X855501Y599103D01*
X855440Y599066D01*
X855375Y599036D01*
X855336Y599001D01*
X855292Y598974D01*
X855246Y598918D01*
X855193Y598870D01*
X855168Y598824D01*
X855135Y598784D01*
X855109Y598717D01*
X855075Y598654D01*
X855066Y598603D01*
X855047Y598555D01*
X855044Y598483D01*
X855031Y598412D01*
X855039Y598361D01*
X855037Y598309D01*
X855057Y598240D01*
X855067Y598169D01*
X855091Y598123D01*
X855105Y598073D01*
X855146Y598014D01*
X855178Y597950D01*
X855216Y597913D01*
X855245Y597871D01*
X855303Y597828D01*
X855354Y597778D01*
X855417Y597743D01*
X855443Y597724D01*
X855465Y597717D01*
X855501Y597697D01*
X856390Y597328D01*
X860248Y593470D01*
X862337Y588428D01*
X862337Y582972D01*
X860248Y577930D01*
X856390Y574072D01*
X855501Y573703D01*
X855440Y573666D01*
X855375Y573636D01*
X855336Y573601D01*
X855292Y573574D01*
X855246Y573518D01*
X855193Y573470D01*
X855168Y573424D01*
X855135Y573384D01*
X855109Y573317D01*
X855075Y573254D01*
X855066Y573203D01*
X855047Y573155D01*
X855044Y573083D01*
X855031Y573012D01*
X855039Y572961D01*
X855037Y572909D01*
X855057Y572840D01*
X855067Y572769D01*
X855091Y572723D01*
X855105Y572673D01*
X855146Y572614D01*
X855178Y572550D01*
X855216Y572513D01*
X855245Y572471D01*
X855303Y572428D01*
X855354Y572378D01*
X855417Y572343D01*
X855443Y572324D01*
X855465Y572317D01*
X855501Y572297D01*
X856390Y571928D01*
X860248Y568070D01*
X862337Y563028D01*
X862337Y557572D01*
X860248Y552530D01*
X856390Y548672D01*
X855501Y548303D01*
X855440Y548266D01*
X855375Y548236D01*
X855353Y548216D01*
X855340Y548210D01*
X855326Y548195D01*
X855292Y548174D01*
X855246Y548118D01*
X855193Y548070D01*
X855174Y548035D01*
X855171Y548031D01*
X855166Y548022D01*
X855135Y547984D01*
X855109Y547917D01*
X855075Y547854D01*
X855066Y547803D01*
X855047Y547755D01*
X855044Y547683D01*
X855031Y547612D01*
X855039Y547561D01*
X855037Y547509D01*
X855056Y547440D01*
X855067Y547369D01*
X855091Y547323D01*
X855105Y547273D01*
X855146Y547214D01*
X855178Y547150D01*
X855216Y547113D01*
X855245Y547071D01*
X855303Y547028D01*
X855354Y546978D01*
X855417Y546943D01*
X855443Y546924D01*
X855465Y546916D01*
X855501Y546897D01*
X856390Y546528D01*
X860248Y542670D01*
X862337Y537628D01*
X862337Y532172D01*
X860248Y527130D01*
X856390Y523272D01*
X855501Y522903D01*
X855440Y522866D01*
X855375Y522836D01*
X855336Y522801D01*
X855292Y522774D01*
X855246Y522718D01*
X855193Y522670D01*
X855168Y522624D01*
X855135Y522584D01*
X855109Y522517D01*
X855075Y522454D01*
X855066Y522403D01*
X855047Y522355D01*
X855044Y522283D01*
X855031Y522212D01*
X855039Y522161D01*
X855037Y522109D01*
X855056Y522040D01*
X855067Y521969D01*
X855091Y521923D01*
X855105Y521873D01*
X855146Y521814D01*
X855178Y521750D01*
X855216Y521713D01*
X855245Y521671D01*
X855303Y521628D01*
X855354Y521578D01*
X855417Y521543D01*
X855443Y521524D01*
X855465Y521516D01*
X855501Y521497D01*
X856390Y521128D01*
X860248Y517270D01*
X862337Y512228D01*
X862337Y506772D01*
X860248Y501730D01*
X856390Y497872D01*
X851348Y495783D01*
X830652Y495783D01*
X825610Y497872D01*
X824428Y499053D01*
X824370Y499095D01*
X824318Y499145D01*
X824271Y499166D01*
X824229Y499197D01*
X824160Y499218D01*
X824095Y499248D01*
X824043Y499254D01*
X823993Y499269D01*
X823922Y499267D01*
X823851Y499275D01*
X823800Y499264D01*
X823748Y499263D01*
X823680Y499238D01*
X823610Y499223D01*
X823565Y499196D01*
X823517Y499178D01*
X823461Y499134D01*
X823399Y499097D01*
X823365Y499057D01*
X823325Y499025D01*
X823286Y498964D01*
X823239Y498910D01*
X823220Y498862D01*
X823192Y498818D01*
X823174Y498748D01*
X823147Y498682D01*
X823139Y498610D01*
X823131Y498579D01*
X823133Y498556D01*
X823129Y498515D01*
X823129Y489532D01*
X823140Y489466D01*
X823141Y489398D01*
X823159Y489345D01*
X823168Y489290D01*
X823200Y489230D01*
X823223Y489166D01*
X823257Y489122D01*
X823284Y489072D01*
X823333Y489026D01*
X823375Y488972D01*
X823421Y488942D01*
X823462Y488903D01*
X823523Y488874D01*
X823580Y488837D01*
X823634Y488823D01*
X823685Y488799D01*
X823752Y488792D01*
X823818Y488775D01*
X823874Y488778D01*
X823929Y488772D01*
X823996Y488787D01*
X824063Y488791D01*
X824115Y488813D01*
X824170Y488825D01*
X824228Y488859D01*
X824291Y488885D01*
X824333Y488922D01*
X824381Y488951D01*
X824425Y489002D01*
X824476Y489047D01*
X824519Y489113D01*
X824541Y489138D01*
X824549Y489157D01*
X824568Y489187D01*
X824690Y489425D01*
X825630Y490719D01*
X826761Y491850D01*
X828055Y492790D01*
X829480Y493516D01*
X831001Y494011D01*
X832580Y494261D01*
X839477Y494261D01*
X839477Y484862D01*
X839480Y484842D01*
X839478Y484823D01*
X839500Y484721D01*
X839517Y484619D01*
X839526Y484602D01*
X839530Y484582D01*
X839583Y484493D01*
X839632Y484402D01*
X839646Y484388D01*
X839656Y484371D01*
X839735Y484304D01*
X839810Y484233D01*
X839828Y484224D01*
X839843Y484211D01*
X839939Y484173D01*
X840033Y484129D01*
X840053Y484127D01*
X840071Y484119D01*
X840238Y484101D01*
X841001Y484101D01*
X841001Y484099D01*
X840238Y484099D01*
X840218Y484096D01*
X840199Y484098D01*
X840097Y484076D01*
X839995Y484059D01*
X839978Y484050D01*
X839958Y484046D01*
X839869Y483993D01*
X839778Y483944D01*
X839764Y483930D01*
X839747Y483920D01*
X839680Y483841D01*
X839609Y483766D01*
X839600Y483748D01*
X839587Y483733D01*
X839548Y483637D01*
X839505Y483543D01*
X839503Y483523D01*
X839495Y483505D01*
X839477Y483338D01*
X839477Y473939D01*
X832580Y473939D01*
X831001Y474189D01*
X829480Y474684D01*
X828055Y475410D01*
X826761Y476350D01*
X825630Y477481D01*
X824690Y478775D01*
X824568Y479013D01*
X824528Y479068D01*
X824496Y479128D01*
X824456Y479166D01*
X824423Y479211D01*
X824367Y479250D01*
X824318Y479297D01*
X824267Y479321D01*
X824221Y479353D01*
X824156Y479372D01*
X824095Y479401D01*
X824039Y479407D01*
X823986Y479423D01*
X823918Y479420D01*
X823851Y479428D01*
X823796Y479416D01*
X823740Y479414D01*
X823676Y479390D01*
X823610Y479375D01*
X823562Y479347D01*
X823510Y479327D01*
X823457Y479284D01*
X823399Y479249D01*
X823363Y479207D01*
X823319Y479171D01*
X823283Y479114D01*
X823239Y479062D01*
X823218Y479010D01*
X823188Y478963D01*
X823173Y478897D01*
X823147Y478834D01*
X823139Y478756D01*
X823131Y478724D01*
X823133Y478703D01*
X823129Y478668D01*
X823129Y464132D01*
X823140Y464066D01*
X823141Y463998D01*
X823159Y463945D01*
X823168Y463890D01*
X823200Y463830D01*
X823223Y463766D01*
X823257Y463722D01*
X823284Y463672D01*
X823333Y463626D01*
X823375Y463572D01*
X823421Y463542D01*
X823462Y463503D01*
X823523Y463474D01*
X823580Y463437D01*
X823634Y463423D01*
X823685Y463399D01*
X823752Y463392D01*
X823818Y463375D01*
X823874Y463378D01*
X823929Y463372D01*
X823996Y463387D01*
X824063Y463391D01*
X824115Y463413D01*
X824170Y463425D01*
X824228Y463459D01*
X824291Y463485D01*
X824333Y463522D01*
X824381Y463551D01*
X824425Y463602D01*
X824476Y463647D01*
X824519Y463713D01*
X824541Y463738D01*
X824549Y463757D01*
X824568Y463787D01*
X824690Y464025D01*
X825630Y465319D01*
X826761Y466450D01*
X828055Y467390D01*
X829480Y468116D01*
X831001Y468611D01*
X832580Y468861D01*
X839477Y468861D01*
X839477Y459462D01*
X839480Y459442D01*
X839478Y459423D01*
X839500Y459321D01*
X839517Y459219D01*
X839526Y459202D01*
X839530Y459182D01*
X839583Y459093D01*
X839632Y459002D01*
X839646Y458988D01*
X839656Y458971D01*
X839735Y458904D01*
X839810Y458833D01*
X839828Y458824D01*
X839843Y458811D01*
X839939Y458773D01*
X840033Y458729D01*
X840053Y458727D01*
X840071Y458719D01*
X840238Y458701D01*
X841001Y458701D01*
X841001Y458699D01*
X840238Y458699D01*
X840218Y458696D01*
X840199Y458698D01*
X840097Y458676D01*
X839995Y458659D01*
X839978Y458650D01*
X839958Y458646D01*
X839869Y458593D01*
X839778Y458544D01*
X839764Y458530D01*
X839747Y458520D01*
X839680Y458441D01*
X839609Y458366D01*
X839600Y458348D01*
X839587Y458333D01*
X839548Y458237D01*
X839505Y458143D01*
X839503Y458123D01*
X839495Y458105D01*
X839477Y457938D01*
X839477Y448539D01*
X832580Y448539D01*
X831001Y448789D01*
X829480Y449284D01*
X828055Y450010D01*
X826761Y450950D01*
X825630Y452081D01*
X824690Y453375D01*
X824568Y453613D01*
X824528Y453668D01*
X824496Y453728D01*
X824456Y453766D01*
X824423Y453811D01*
X824367Y453850D01*
X824318Y453897D01*
X824267Y453921D01*
X824221Y453953D01*
X824156Y453972D01*
X824095Y454001D01*
X824039Y454007D01*
X823986Y454023D01*
X823918Y454020D01*
X823851Y454028D01*
X823796Y454016D01*
X823740Y454014D01*
X823676Y453990D01*
X823610Y453975D01*
X823562Y453947D01*
X823510Y453927D01*
X823457Y453884D01*
X823399Y453849D01*
X823363Y453807D01*
X823319Y453771D01*
X823283Y453714D01*
X823239Y453662D01*
X823218Y453610D01*
X823188Y453563D01*
X823173Y453497D01*
X823147Y453434D01*
X823139Y453356D01*
X823131Y453324D01*
X823133Y453303D01*
X823129Y453268D01*
X823129Y292683D01*
X821891Y289695D01*
X764510Y232314D01*
X764457Y232240D01*
X764397Y232171D01*
X764385Y232140D01*
X764366Y232114D01*
X764339Y232027D01*
X764305Y231942D01*
X764301Y231901D01*
X764294Y231879D01*
X764295Y231847D01*
X764287Y231776D01*
X764287Y231520D01*
X764298Y231450D01*
X764300Y231378D01*
X764318Y231329D01*
X764326Y231278D01*
X764360Y231214D01*
X764385Y231147D01*
X764417Y231106D01*
X764442Y231060D01*
X764493Y231011D01*
X764538Y230955D01*
X764582Y230927D01*
X764620Y230891D01*
X764685Y230861D01*
X764745Y230822D01*
X764796Y230809D01*
X764843Y230787D01*
X764914Y230779D01*
X764984Y230762D01*
X765036Y230766D01*
X765087Y230760D01*
X765158Y230775D01*
X765229Y230781D01*
X765277Y230801D01*
X765328Y230812D01*
X765389Y230849D01*
X765455Y230877D01*
X765511Y230922D01*
X765539Y230939D01*
X765554Y230956D01*
X765586Y230982D01*
X886648Y352044D01*
X886701Y352118D01*
X886761Y352187D01*
X886773Y352218D01*
X886792Y352244D01*
X886819Y352331D01*
X886853Y352416D01*
X886857Y352457D01*
X886864Y352479D01*
X886863Y352511D01*
X886871Y352582D01*
X886871Y377827D01*
X886857Y377917D01*
X886849Y378008D01*
X886837Y378038D01*
X886832Y378070D01*
X886789Y378151D01*
X886753Y378235D01*
X886727Y378267D01*
X886716Y378287D01*
X886693Y378310D01*
X886681Y378325D01*
X886675Y378335D01*
X886668Y378341D01*
X886648Y378366D01*
X886017Y378997D01*
X884403Y382892D01*
X884403Y387108D01*
X886017Y391003D01*
X888997Y393983D01*
X892892Y395597D01*
X897108Y395597D01*
X901003Y393983D01*
X903983Y391003D01*
X905597Y387108D01*
X905597Y382892D01*
X903983Y378997D01*
X903352Y378366D01*
X903307Y378304D01*
X903278Y378273D01*
X903272Y378261D01*
X903239Y378222D01*
X903227Y378192D01*
X903208Y378166D01*
X903181Y378079D01*
X903147Y377994D01*
X903143Y377953D01*
X903136Y377931D01*
X903137Y377899D01*
X903129Y377827D01*
X903129Y347283D01*
X901891Y344295D01*
X899498Y341902D01*
X899497Y341902D01*
X764510Y206914D01*
X764457Y206840D01*
X764397Y206771D01*
X764385Y206740D01*
X764366Y206714D01*
X764339Y206627D01*
X764305Y206542D01*
X764301Y206501D01*
X764294Y206479D01*
X764295Y206447D01*
X764287Y206376D01*
X764287Y200653D01*
X764302Y200557D01*
X764312Y200460D01*
X764322Y200436D01*
X764326Y200411D01*
X764372Y200325D01*
X764412Y200236D01*
X764429Y200216D01*
X764442Y200193D01*
X764512Y200126D01*
X764578Y200055D01*
X764601Y200042D01*
X764620Y200024D01*
X764708Y199983D01*
X764794Y199936D01*
X764819Y199931D01*
X764843Y199920D01*
X764940Y199910D01*
X765036Y199892D01*
X765062Y199896D01*
X765087Y199893D01*
X765182Y199914D01*
X765279Y199928D01*
X765302Y199940D01*
X765328Y199946D01*
X765411Y199995D01*
X765498Y200040D01*
X765517Y200058D01*
X765539Y200072D01*
X765602Y200146D01*
X765670Y200215D01*
X765686Y200244D01*
X765699Y200259D01*
X765711Y200289D01*
X765751Y200362D01*
X766017Y201003D01*
X768997Y203983D01*
X772892Y205597D01*
X777108Y205597D01*
X781003Y203983D01*
X783983Y201003D01*
X785597Y197108D01*
X785597Y192892D01*
X783983Y188997D01*
X783052Y188066D01*
X783009Y188006D01*
X782965Y187960D01*
X782958Y187944D01*
X782939Y187922D01*
X782927Y187892D01*
X782908Y187866D01*
X782882Y187782D01*
X782861Y187737D01*
X782860Y187727D01*
X782847Y187694D01*
X782843Y187653D01*
X782836Y187631D01*
X782837Y187599D01*
X782829Y187527D01*
X782829Y108712D01*
X782843Y108622D01*
X782851Y108531D01*
X782863Y108501D01*
X782868Y108469D01*
X782911Y108388D01*
X782947Y108305D01*
X782973Y108272D01*
X782984Y108252D01*
X783007Y108230D01*
X783052Y108174D01*
X786261Y104965D01*
X786697Y103912D01*
X786734Y103851D01*
X786764Y103785D01*
X786799Y103747D01*
X786826Y103703D01*
X786882Y103657D01*
X786930Y103604D01*
X786976Y103579D01*
X787016Y103546D01*
X787083Y103520D01*
X787146Y103486D01*
X787197Y103476D01*
X787245Y103458D01*
X787317Y103455D01*
X787388Y103442D01*
X787439Y103450D01*
X787491Y103447D01*
X787560Y103467D01*
X787631Y103478D01*
X787677Y103501D01*
X787727Y103516D01*
X787786Y103557D01*
X787850Y103589D01*
X787887Y103626D01*
X787929Y103656D01*
X787972Y103714D01*
X788022Y103765D01*
X788057Y103828D01*
X788076Y103854D01*
X788083Y103876D01*
X788103Y103912D01*
X788539Y104965D01*
X792375Y108801D01*
X797387Y110877D01*
X802813Y110877D01*
X807825Y108801D01*
X811661Y104965D01*
X812097Y103912D01*
X812134Y103851D01*
X812164Y103785D01*
X812199Y103747D01*
X812226Y103703D01*
X812282Y103657D01*
X812330Y103604D01*
X812376Y103579D01*
X812416Y103546D01*
X812483Y103520D01*
X812546Y103486D01*
X812597Y103476D01*
X812645Y103458D01*
X812717Y103455D01*
X812788Y103442D01*
X812839Y103450D01*
X812891Y103447D01*
X812960Y103467D01*
X813031Y103478D01*
X813077Y103501D01*
X813127Y103516D01*
X813186Y103557D01*
X813250Y103589D01*
X813287Y103626D01*
X813329Y103656D01*
X813372Y103714D01*
X813422Y103765D01*
X813457Y103828D01*
X813476Y103854D01*
X813483Y103876D01*
X813503Y103912D01*
X813939Y104965D01*
X816632Y107658D01*
X816685Y107731D01*
X816745Y107801D01*
X816757Y107831D01*
X816776Y107857D01*
X816803Y107944D01*
X816837Y108029D01*
X816841Y108070D01*
X816848Y108092D01*
X816847Y108125D01*
X816855Y108196D01*
X816855Y130308D01*
X816841Y130398D01*
X816833Y130489D01*
X816821Y130519D01*
X816816Y130551D01*
X816773Y130631D01*
X816737Y130715D01*
X816711Y130747D01*
X816700Y130768D01*
X816677Y130790D01*
X816632Y130846D01*
X814897Y132581D01*
X812903Y137395D01*
X812903Y142605D01*
X814897Y147419D01*
X818581Y151103D01*
X823395Y153097D01*
X828605Y153097D01*
X833419Y151103D01*
X837103Y147419D01*
X839097Y142605D01*
X839097Y137395D01*
X837103Y132581D01*
X835368Y130846D01*
X835315Y130772D01*
X835255Y130703D01*
X835243Y130673D01*
X835224Y130646D01*
X835197Y130559D01*
X835163Y130475D01*
X835159Y130434D01*
X835152Y130411D01*
X835153Y130379D01*
X835145Y130308D01*
X835145Y107196D01*
X835159Y107106D01*
X835167Y107015D01*
X835179Y106985D01*
X835184Y106953D01*
X835227Y106872D01*
X835263Y106789D01*
X835289Y106756D01*
X835300Y106736D01*
X835323Y106714D01*
X835368Y106658D01*
X837061Y104965D01*
X839137Y99953D01*
X839137Y79447D01*
X837061Y74435D01*
X833225Y70599D01*
X828213Y68523D01*
X822787Y68523D01*
X817775Y70599D01*
X813939Y74435D01*
X813503Y75488D01*
X813466Y75549D01*
X813436Y75615D01*
X813401Y75653D01*
X813374Y75697D01*
X813319Y75743D01*
X813270Y75796D01*
X813224Y75821D01*
X813184Y75854D01*
X813117Y75880D01*
X813054Y75914D01*
X813003Y75924D01*
X812955Y75942D01*
X812883Y75945D01*
X812812Y75958D01*
X812761Y75950D01*
X812709Y75953D01*
X812640Y75933D01*
X812569Y75922D01*
X812523Y75899D01*
X812473Y75884D01*
X812414Y75843D01*
X812350Y75811D01*
X812313Y75774D01*
X812271Y75744D01*
X812228Y75686D01*
X812178Y75635D01*
X812143Y75572D01*
X812124Y75546D01*
X812117Y75524D01*
X812097Y75488D01*
X811661Y74435D01*
X807825Y70599D01*
X802813Y68523D01*
X797387Y68523D01*
X792375Y70599D01*
X788539Y74435D01*
X788103Y75488D01*
X788066Y75549D01*
X788036Y75615D01*
X788001Y75653D01*
X787974Y75697D01*
X787919Y75743D01*
X787870Y75796D01*
X787824Y75821D01*
X787784Y75854D01*
X787717Y75880D01*
X787654Y75914D01*
X787603Y75924D01*
X787555Y75942D01*
X787483Y75945D01*
X787412Y75958D01*
X787361Y75950D01*
X787309Y75953D01*
X787240Y75933D01*
X787169Y75922D01*
X787123Y75899D01*
X787073Y75884D01*
X787014Y75843D01*
X786950Y75811D01*
X786913Y75774D01*
X786871Y75744D01*
X786828Y75686D01*
X786778Y75635D01*
X786743Y75572D01*
X786724Y75546D01*
X786717Y75524D01*
X786697Y75488D01*
X786261Y74435D01*
X782425Y70599D01*
X777413Y68523D01*
X771987Y68523D01*
X766975Y70599D01*
X763139Y74435D01*
X762703Y75488D01*
X762666Y75549D01*
X762636Y75615D01*
X762601Y75653D01*
X762574Y75697D01*
X762519Y75743D01*
X762470Y75796D01*
X762424Y75821D01*
X762384Y75854D01*
X762317Y75880D01*
X762254Y75914D01*
X762203Y75924D01*
X762155Y75942D01*
X762083Y75945D01*
X762012Y75958D01*
X761961Y75950D01*
X761909Y75953D01*
X761840Y75933D01*
X761769Y75922D01*
X761723Y75899D01*
X761673Y75884D01*
X761614Y75843D01*
X761550Y75811D01*
X761513Y75774D01*
X761471Y75744D01*
X761428Y75686D01*
X761378Y75635D01*
X761343Y75572D01*
X761324Y75546D01*
X761317Y75524D01*
X761297Y75488D01*
X760861Y74435D01*
X757025Y70599D01*
X752013Y68523D01*
X746587Y68523D01*
X741575Y70599D01*
X737739Y74435D01*
X735663Y79447D01*
X735663Y99953D01*
X737739Y104965D01*
X740948Y108174D01*
X741001Y108247D01*
X741061Y108317D01*
X741073Y108347D01*
X741092Y108373D01*
X741119Y108460D01*
X741153Y108545D01*
X741157Y108586D01*
X741164Y108608D01*
X741163Y108641D01*
X741171Y108712D01*
X741171Y126748D01*
X741156Y126844D01*
X741146Y126941D01*
X741136Y126965D01*
X741132Y126991D01*
X741086Y127077D01*
X741046Y127166D01*
X741029Y127185D01*
X741016Y127208D01*
X740946Y127275D01*
X740880Y127347D01*
X740857Y127359D01*
X740838Y127377D01*
X740750Y127418D01*
X740664Y127465D01*
X740639Y127470D01*
X740615Y127481D01*
X740518Y127492D01*
X740422Y127509D01*
X740396Y127505D01*
X740371Y127508D01*
X740275Y127487D01*
X740179Y127473D01*
X740156Y127461D01*
X740130Y127456D01*
X740047Y127406D01*
X739960Y127362D01*
X739941Y127343D01*
X739919Y127330D01*
X739856Y127256D01*
X739788Y127186D01*
X739772Y127158D01*
X739759Y127143D01*
X739747Y127112D01*
X739707Y127039D01*
X739103Y125581D01*
X735419Y121897D01*
X730605Y119903D01*
X725395Y119903D01*
X720581Y121897D01*
X718846Y123632D01*
X718772Y123685D01*
X718703Y123745D01*
X718673Y123757D01*
X718646Y123776D01*
X718559Y123803D01*
X718475Y123837D01*
X718434Y123841D01*
X718411Y123848D01*
X718379Y123847D01*
X718308Y123855D01*
X675181Y123855D01*
X671820Y125247D01*
X642247Y154820D01*
X640855Y158181D01*
X640855Y196797D01*
X640841Y196887D01*
X640833Y196978D01*
X640821Y197008D01*
X640816Y197040D01*
X640773Y197120D01*
X640737Y197204D01*
X640711Y197236D01*
X640700Y197257D01*
X640677Y197279D01*
X640632Y197335D01*
X638586Y199381D01*
X638528Y199423D01*
X638476Y199472D01*
X638429Y199494D01*
X638387Y199525D01*
X638318Y199546D01*
X638253Y199576D01*
X638201Y199582D01*
X638151Y199597D01*
X638080Y199595D01*
X638009Y199603D01*
X637958Y199592D01*
X637906Y199591D01*
X637838Y199566D01*
X637768Y199551D01*
X637723Y199524D01*
X637675Y199506D01*
X637619Y199461D01*
X637557Y199425D01*
X637523Y199385D01*
X637483Y199353D01*
X637444Y199292D01*
X637397Y199238D01*
X637378Y199189D01*
X637350Y199146D01*
X637332Y199076D01*
X637305Y199010D01*
X637297Y198938D01*
X637289Y198907D01*
X637291Y198884D01*
X637287Y198843D01*
X637287Y196992D01*
X628818Y188524D01*
X628807Y188508D01*
X628791Y188495D01*
X628735Y188408D01*
X628675Y188324D01*
X628669Y188305D01*
X628658Y188288D01*
X628633Y188188D01*
X628602Y188089D01*
X628603Y188069D01*
X628598Y188050D01*
X628606Y187947D01*
X628609Y187843D01*
X628616Y187824D01*
X628617Y187805D01*
X628657Y187710D01*
X628693Y187612D01*
X628706Y187596D01*
X628713Y187578D01*
X628818Y187447D01*
X633731Y182535D01*
X633731Y179323D01*
X623062Y179323D01*
X623042Y179320D01*
X623023Y179322D01*
X622921Y179300D01*
X622819Y179283D01*
X622802Y179274D01*
X622782Y179270D01*
X622693Y179217D01*
X622602Y179168D01*
X622588Y179154D01*
X622571Y179144D01*
X622504Y179065D01*
X622433Y178990D01*
X622424Y178972D01*
X622411Y178957D01*
X622372Y178860D01*
X622329Y178767D01*
X622327Y178747D01*
X622319Y178729D01*
X622301Y178562D01*
X622301Y177799D01*
X622299Y177799D01*
X622299Y178562D01*
X622296Y178582D01*
X622298Y178601D01*
X622276Y178703D01*
X622259Y178805D01*
X622250Y178822D01*
X622246Y178842D01*
X622193Y178931D01*
X622144Y179022D01*
X622130Y179036D01*
X622120Y179053D01*
X622041Y179120D01*
X621966Y179191D01*
X621948Y179200D01*
X621933Y179213D01*
X621837Y179252D01*
X621743Y179295D01*
X621723Y179297D01*
X621705Y179305D01*
X621538Y179323D01*
X610869Y179323D01*
X610869Y182535D01*
X615782Y187447D01*
X615793Y187463D01*
X615809Y187476D01*
X615865Y187563D01*
X615925Y187647D01*
X615931Y187666D01*
X615942Y187683D01*
X615967Y187783D01*
X615998Y187882D01*
X615997Y187902D01*
X616002Y187921D01*
X615994Y188024D01*
X615991Y188128D01*
X615984Y188147D01*
X615983Y188167D01*
X615943Y188261D01*
X615907Y188359D01*
X615894Y188375D01*
X615887Y188393D01*
X615782Y188524D01*
X607313Y196992D01*
X607313Y209408D01*
X613267Y215362D01*
X613279Y215378D01*
X613294Y215390D01*
X613351Y215478D01*
X613411Y215561D01*
X613417Y215580D01*
X613427Y215597D01*
X613453Y215698D01*
X613483Y215797D01*
X613483Y215816D01*
X613488Y215836D01*
X613480Y215939D01*
X613477Y216042D01*
X613470Y216061D01*
X613468Y216081D01*
X613428Y216176D01*
X613392Y216273D01*
X613380Y216289D01*
X613372Y216307D01*
X613267Y216438D01*
X607313Y222392D01*
X607313Y234808D01*
X613267Y240762D01*
X613279Y240778D01*
X613294Y240790D01*
X613351Y240878D01*
X613411Y240961D01*
X613417Y240980D01*
X613427Y240997D01*
X613453Y241098D01*
X613483Y241197D01*
X613483Y241216D01*
X613488Y241236D01*
X613480Y241339D01*
X613477Y241442D01*
X613470Y241461D01*
X613468Y241481D01*
X613428Y241576D01*
X613392Y241673D01*
X613380Y241689D01*
X613372Y241707D01*
X613267Y241838D01*
X607313Y247792D01*
X607313Y260208D01*
X613267Y266162D01*
X613279Y266178D01*
X613294Y266190D01*
X613331Y266247D01*
X613357Y266274D01*
X613372Y266308D01*
X613411Y266361D01*
X613417Y266380D01*
X613427Y266397D01*
X613444Y266462D01*
X613460Y266497D01*
X613464Y266535D01*
X613483Y266597D01*
X613483Y266616D01*
X613488Y266636D01*
X613483Y266699D01*
X613487Y266741D01*
X613478Y266782D01*
X613477Y266842D01*
X613470Y266861D01*
X613468Y266881D01*
X613445Y266936D01*
X613435Y266982D01*
X613412Y267021D01*
X613392Y267073D01*
X613380Y267089D01*
X613372Y267107D01*
X613324Y267167D01*
X613309Y267193D01*
X613292Y267207D01*
X613267Y267238D01*
X609873Y270632D01*
X609799Y270685D01*
X609730Y270745D01*
X609700Y270757D01*
X609674Y270776D01*
X609587Y270803D01*
X609502Y270837D01*
X609461Y270841D01*
X609438Y270848D01*
X609406Y270847D01*
X609335Y270855D01*
X589103Y270855D01*
X589013Y270841D01*
X588922Y270833D01*
X588892Y270821D01*
X588860Y270816D01*
X588780Y270773D01*
X588696Y270737D01*
X588664Y270711D01*
X588643Y270700D01*
X588621Y270677D01*
X588565Y270632D01*
X580868Y262935D01*
X580815Y262861D01*
X580755Y262792D01*
X580743Y262762D01*
X580724Y262735D01*
X580697Y262648D01*
X580663Y262564D01*
X580659Y262523D01*
X580652Y262500D01*
X580653Y262468D01*
X580645Y262397D01*
X580645Y260297D01*
X580656Y260226D01*
X580658Y260155D01*
X580676Y260106D01*
X580684Y260054D01*
X580718Y259991D01*
X580743Y259924D01*
X580775Y259883D01*
X580800Y259837D01*
X580852Y259788D01*
X580896Y259732D01*
X580940Y259703D01*
X580978Y259668D01*
X581043Y259637D01*
X581103Y259599D01*
X581154Y259586D01*
X581201Y259564D01*
X581272Y259556D01*
X581342Y259538D01*
X581394Y259543D01*
X581445Y259537D01*
X581516Y259552D01*
X581587Y259558D01*
X581635Y259578D01*
X581686Y259589D01*
X581747Y259626D01*
X581813Y259654D01*
X581869Y259699D01*
X581897Y259715D01*
X581912Y259733D01*
X581944Y259759D01*
X582864Y260679D01*
X587494Y262597D01*
X592506Y262597D01*
X597136Y260679D01*
X600679Y257136D01*
X602597Y252506D01*
X602597Y247494D01*
X600679Y242864D01*
X599368Y241553D01*
X599315Y241479D01*
X599255Y241410D01*
X599243Y241380D01*
X599224Y241353D01*
X599197Y241267D01*
X599163Y241182D01*
X599159Y241141D01*
X599152Y241118D01*
X599153Y241086D01*
X599145Y241015D01*
X599145Y159103D01*
X599159Y159013D01*
X599167Y158922D01*
X599179Y158892D01*
X599184Y158860D01*
X599227Y158780D01*
X599263Y158696D01*
X599289Y158664D01*
X599300Y158643D01*
X599323Y158621D01*
X599368Y158565D01*
X604653Y153280D01*
X606045Y149919D01*
X606045Y107696D01*
X606059Y107606D01*
X606067Y107515D01*
X606079Y107485D01*
X606084Y107453D01*
X606127Y107372D01*
X606163Y107288D01*
X606189Y107256D01*
X606200Y107236D01*
X606223Y107214D01*
X606268Y107158D01*
X608461Y104965D01*
X610537Y99953D01*
X610537Y79447D01*
X608461Y74435D01*
X604625Y70599D01*
X599613Y68523D01*
X594187Y68523D01*
X589175Y70599D01*
X585339Y74435D01*
X584903Y75488D01*
X584866Y75549D01*
X584836Y75615D01*
X584801Y75653D01*
X584774Y75697D01*
X584719Y75743D01*
X584670Y75796D01*
X584624Y75821D01*
X584584Y75854D01*
X584517Y75880D01*
X584454Y75914D01*
X584403Y75924D01*
X584355Y75942D01*
X584283Y75945D01*
X584212Y75958D01*
X584161Y75950D01*
X584109Y75953D01*
X584040Y75933D01*
X583969Y75922D01*
X583923Y75899D01*
X583873Y75884D01*
X583814Y75843D01*
X583750Y75811D01*
X583713Y75774D01*
X583671Y75744D01*
X583628Y75686D01*
X583578Y75635D01*
X583543Y75572D01*
X583524Y75546D01*
X583517Y75524D01*
X583497Y75488D01*
X583061Y74435D01*
X579225Y70599D01*
X574213Y68523D01*
X568787Y68523D01*
X563775Y70599D01*
X559939Y74435D01*
X559503Y75488D01*
X559466Y75549D01*
X559436Y75615D01*
X559401Y75653D01*
X559374Y75697D01*
X559319Y75743D01*
X559270Y75796D01*
X559224Y75821D01*
X559184Y75854D01*
X559117Y75880D01*
X559054Y75914D01*
X559003Y75924D01*
X558955Y75942D01*
X558883Y75945D01*
X558812Y75958D01*
X558761Y75950D01*
X558709Y75953D01*
X558640Y75933D01*
X558569Y75922D01*
X558523Y75899D01*
X558473Y75884D01*
X558414Y75843D01*
X558350Y75811D01*
X558313Y75774D01*
X558271Y75744D01*
X558228Y75686D01*
X558178Y75635D01*
X558143Y75572D01*
X558124Y75546D01*
X558117Y75524D01*
X558097Y75488D01*
X557661Y74435D01*
X553825Y70599D01*
X548813Y68523D01*
X543387Y68523D01*
X538375Y70599D01*
X534539Y74435D01*
X534103Y75488D01*
X534066Y75549D01*
X534036Y75615D01*
X534001Y75653D01*
X533974Y75697D01*
X533919Y75743D01*
X533870Y75796D01*
X533824Y75821D01*
X533784Y75854D01*
X533717Y75880D01*
X533654Y75914D01*
X533603Y75924D01*
X533555Y75942D01*
X533483Y75945D01*
X533412Y75958D01*
X533361Y75950D01*
X533309Y75953D01*
X533240Y75933D01*
X533169Y75922D01*
X533123Y75899D01*
X533073Y75884D01*
X533014Y75843D01*
X532950Y75811D01*
X532913Y75774D01*
X532871Y75744D01*
X532828Y75686D01*
X532778Y75635D01*
X532743Y75572D01*
X532724Y75546D01*
X532717Y75524D01*
X532697Y75488D01*
X532261Y74435D01*
X528425Y70599D01*
X523413Y68523D01*
X517987Y68523D01*
G37*
%LPD*%
%LPC*%
G36*
X257029Y745045D02*
X257029Y745045D01*
X254788Y745973D01*
X253073Y747688D01*
X252145Y749929D01*
X252145Y816871D01*
X253073Y819112D01*
X254788Y820827D01*
X257029Y821755D01*
X276142Y821755D01*
X276162Y821758D01*
X276181Y821756D01*
X276283Y821778D01*
X276385Y821794D01*
X276402Y821804D01*
X276422Y821808D01*
X276511Y821861D01*
X276602Y821910D01*
X276616Y821924D01*
X276633Y821934D01*
X276700Y822013D01*
X276772Y822088D01*
X276780Y822106D01*
X276793Y822121D01*
X276832Y822217D01*
X276875Y822311D01*
X276877Y822331D01*
X276885Y822349D01*
X276903Y822516D01*
X276903Y878553D01*
X276889Y878643D01*
X276881Y878734D01*
X276869Y878764D01*
X276864Y878795D01*
X276821Y878876D01*
X276785Y878960D01*
X276759Y878992D01*
X276748Y879013D01*
X276725Y879035D01*
X276680Y879091D01*
X274616Y881156D01*
X274521Y881224D01*
X274427Y881293D01*
X274421Y881295D01*
X274416Y881299D01*
X274304Y881333D01*
X274193Y881370D01*
X274187Y881370D01*
X274181Y881371D01*
X274064Y881368D01*
X273947Y881367D01*
X273940Y881365D01*
X273935Y881365D01*
X273918Y881359D01*
X273796Y881323D01*
X206207Y881323D01*
X203966Y882251D01*
X202251Y883966D01*
X201323Y886207D01*
X201323Y953793D01*
X202251Y956034D01*
X203966Y957749D01*
X206207Y958677D01*
X273793Y958677D01*
X276034Y957749D01*
X277749Y956034D01*
X278677Y953793D01*
X278677Y915867D01*
X278691Y915777D01*
X278699Y915686D01*
X278711Y915656D01*
X278716Y915624D01*
X278759Y915544D01*
X278795Y915460D01*
X278821Y915428D01*
X278832Y915407D01*
X278855Y915385D01*
X278900Y915329D01*
X302027Y892202D01*
X304097Y887205D01*
X304097Y822516D01*
X304100Y822496D01*
X304098Y822477D01*
X304120Y822375D01*
X304136Y822273D01*
X304146Y822256D01*
X304150Y822236D01*
X304203Y822147D01*
X304252Y822056D01*
X304266Y822042D01*
X304276Y822025D01*
X304355Y821958D01*
X304430Y821886D01*
X304448Y821878D01*
X304463Y821865D01*
X304559Y821826D01*
X304653Y821783D01*
X304673Y821781D01*
X304691Y821773D01*
X304858Y821755D01*
X323971Y821755D01*
X326212Y820827D01*
X327927Y819112D01*
X328855Y816871D01*
X328855Y749929D01*
X327927Y747688D01*
X326212Y745973D01*
X323971Y745045D01*
X257029Y745045D01*
G37*
%LPD*%
%LPC*%
G36*
X57029Y745045D02*
X57029Y745045D01*
X54788Y745973D01*
X53073Y747688D01*
X52145Y749929D01*
X52145Y816871D01*
X53073Y819112D01*
X54788Y820827D01*
X57029Y821755D01*
X76142Y821755D01*
X76162Y821758D01*
X76181Y821756D01*
X76283Y821778D01*
X76385Y821794D01*
X76402Y821804D01*
X76422Y821808D01*
X76511Y821861D01*
X76602Y821910D01*
X76616Y821924D01*
X76633Y821934D01*
X76700Y822013D01*
X76772Y822088D01*
X76780Y822106D01*
X76793Y822121D01*
X76832Y822217D01*
X76875Y822311D01*
X76877Y822331D01*
X76885Y822349D01*
X76903Y822516D01*
X76903Y883205D01*
X78973Y888202D01*
X94235Y903464D01*
X94261Y903500D01*
X94293Y903529D01*
X94332Y903599D01*
X94379Y903664D01*
X94392Y903706D01*
X94413Y903744D01*
X94428Y903823D01*
X94451Y903899D01*
X94450Y903943D01*
X94458Y903986D01*
X94447Y904065D01*
X94445Y904145D01*
X94430Y904186D01*
X94424Y904229D01*
X94365Y904363D01*
X94361Y904376D01*
X94358Y904379D01*
X94356Y904383D01*
X93959Y905071D01*
X91323Y914908D01*
X91323Y925092D01*
X93959Y934929D01*
X99051Y943748D01*
X106252Y950949D01*
X115071Y956041D01*
X124908Y958677D01*
X135092Y958677D01*
X144929Y956041D01*
X153748Y950949D01*
X160949Y943748D01*
X166041Y934929D01*
X168677Y925092D01*
X168677Y914908D01*
X166041Y905071D01*
X160949Y896252D01*
X153748Y889051D01*
X144929Y883959D01*
X135092Y881323D01*
X124908Y881323D01*
X115071Y883959D01*
X114383Y884356D01*
X114342Y884372D01*
X114305Y884396D01*
X114228Y884415D01*
X114153Y884443D01*
X114109Y884445D01*
X114067Y884456D01*
X113987Y884449D01*
X113907Y884452D01*
X113865Y884440D01*
X113821Y884437D01*
X113748Y884405D01*
X113671Y884383D01*
X113635Y884357D01*
X113595Y884340D01*
X113481Y884249D01*
X113470Y884241D01*
X113468Y884239D01*
X113464Y884235D01*
X104320Y875091D01*
X104267Y875017D01*
X104207Y874948D01*
X104195Y874917D01*
X104176Y874891D01*
X104149Y874804D01*
X104115Y874719D01*
X104111Y874679D01*
X104104Y874656D01*
X104105Y874624D01*
X104097Y874553D01*
X104097Y822516D01*
X104100Y822496D01*
X104098Y822477D01*
X104120Y822375D01*
X104136Y822273D01*
X104146Y822256D01*
X104150Y822236D01*
X104203Y822147D01*
X104252Y822056D01*
X104266Y822042D01*
X104276Y822025D01*
X104355Y821958D01*
X104430Y821886D01*
X104448Y821878D01*
X104463Y821865D01*
X104559Y821826D01*
X104653Y821783D01*
X104673Y821781D01*
X104691Y821773D01*
X104858Y821755D01*
X123971Y821755D01*
X126212Y820827D01*
X127927Y819112D01*
X128855Y816871D01*
X128855Y749929D01*
X127927Y747688D01*
X126212Y745973D01*
X123971Y745045D01*
X57029Y745045D01*
G37*
%LPD*%
%LPC*%
G36*
X467187Y68523D02*
X467187Y68523D01*
X462175Y70599D01*
X458339Y74435D01*
X456263Y79447D01*
X456263Y99953D01*
X457495Y102927D01*
X457510Y102991D01*
X457535Y103052D01*
X457544Y103134D01*
X457551Y103166D01*
X457550Y103186D01*
X457553Y103218D01*
X457553Y134529D01*
X457539Y134619D01*
X457531Y134710D01*
X457519Y134740D01*
X457514Y134772D01*
X457471Y134852D01*
X457435Y134936D01*
X457409Y134968D01*
X457398Y134989D01*
X457375Y135011D01*
X457330Y135067D01*
X414567Y177830D01*
X414493Y177883D01*
X414424Y177943D01*
X414394Y177955D01*
X414368Y177974D01*
X414281Y178001D01*
X414196Y178035D01*
X414155Y178039D01*
X414133Y178046D01*
X414100Y178045D01*
X414029Y178053D01*
X247130Y178053D01*
X247040Y178039D01*
X246949Y178031D01*
X246919Y178019D01*
X246887Y178014D01*
X246807Y177971D01*
X246723Y177935D01*
X246691Y177909D01*
X246670Y177898D01*
X246648Y177875D01*
X246592Y177830D01*
X246561Y177799D01*
X236039Y177799D01*
X236008Y177830D01*
X235934Y177883D01*
X235865Y177943D01*
X235835Y177955D01*
X235808Y177974D01*
X235721Y178001D01*
X235637Y178035D01*
X235596Y178039D01*
X235573Y178046D01*
X235541Y178045D01*
X235470Y178053D01*
X153266Y178053D01*
X153201Y178043D01*
X153136Y178042D01*
X153056Y178019D01*
X153023Y178014D01*
X153006Y178004D01*
X152975Y177995D01*
X150048Y176783D01*
X129352Y176783D01*
X124310Y178872D01*
X120452Y182730D01*
X118363Y187772D01*
X118363Y193228D01*
X120452Y198270D01*
X124310Y202128D01*
X129352Y204217D01*
X150048Y204217D01*
X152975Y203005D01*
X153038Y202990D01*
X153099Y202965D01*
X153182Y202956D01*
X153214Y202949D01*
X153233Y202950D01*
X153266Y202947D01*
X235470Y202947D01*
X235560Y202961D01*
X235651Y202969D01*
X235681Y202981D01*
X235713Y202986D01*
X235793Y203029D01*
X235877Y203065D01*
X235909Y203091D01*
X235930Y203102D01*
X235952Y203125D01*
X236008Y203170D01*
X236039Y203201D01*
X246561Y203201D01*
X246592Y203170D01*
X246666Y203117D01*
X246735Y203057D01*
X246765Y203045D01*
X246792Y203026D01*
X246879Y202999D01*
X246963Y202965D01*
X247004Y202961D01*
X247027Y202954D01*
X247059Y202955D01*
X247130Y202947D01*
X421976Y202947D01*
X426551Y201052D01*
X480552Y147051D01*
X482447Y142476D01*
X482447Y102735D01*
X482457Y102671D01*
X482458Y102605D01*
X482481Y102525D01*
X482486Y102493D01*
X482496Y102475D01*
X482505Y102444D01*
X483537Y99953D01*
X483537Y79447D01*
X481461Y74435D01*
X477625Y70599D01*
X472613Y68523D01*
X467187Y68523D01*
G37*
%LPD*%
G36*
X721604Y165118D02*
X721604Y165118D01*
X721701Y165121D01*
X721726Y165130D01*
X721752Y165132D01*
X721841Y165172D01*
X721932Y165205D01*
X721953Y165222D01*
X721977Y165232D01*
X722048Y165298D01*
X722124Y165359D01*
X722139Y165381D01*
X722158Y165399D01*
X722205Y165484D01*
X722257Y165566D01*
X722264Y165591D01*
X722276Y165614D01*
X722294Y165710D01*
X722317Y165805D01*
X722315Y165831D01*
X722320Y165856D01*
X722306Y165953D01*
X722298Y166050D01*
X722288Y166074D01*
X722284Y166100D01*
X722240Y166187D01*
X722202Y166276D01*
X722182Y166302D01*
X722173Y166319D01*
X722149Y166342D01*
X722097Y166407D01*
X720503Y168002D01*
X718109Y170395D01*
X716871Y173383D01*
X716871Y247827D01*
X716857Y247917D01*
X716849Y248008D01*
X716837Y248038D01*
X716832Y248070D01*
X716789Y248151D01*
X716753Y248235D01*
X716727Y248267D01*
X716716Y248287D01*
X716693Y248310D01*
X716648Y248366D01*
X716017Y248997D01*
X714403Y252892D01*
X714403Y257108D01*
X716017Y261003D01*
X718997Y263983D01*
X722892Y265597D01*
X727108Y265597D01*
X731003Y263983D01*
X734008Y260979D01*
X734024Y260967D01*
X734036Y260951D01*
X734123Y260895D01*
X734207Y260835D01*
X734226Y260829D01*
X734243Y260818D01*
X734344Y260793D01*
X734442Y260763D01*
X734462Y260763D01*
X734482Y260758D01*
X734585Y260766D01*
X734688Y260769D01*
X734707Y260776D01*
X734727Y260777D01*
X734822Y260818D01*
X734919Y260853D01*
X734935Y260866D01*
X734953Y260874D01*
X735084Y260979D01*
X740267Y266162D01*
X740279Y266178D01*
X740294Y266190D01*
X740331Y266247D01*
X740357Y266274D01*
X740372Y266308D01*
X740411Y266361D01*
X740417Y266380D01*
X740427Y266397D01*
X740444Y266462D01*
X740460Y266497D01*
X740464Y266536D01*
X740483Y266597D01*
X740483Y266616D01*
X740488Y266636D01*
X740483Y266699D01*
X740487Y266741D01*
X740478Y266782D01*
X740477Y266842D01*
X740470Y266861D01*
X740468Y266881D01*
X740445Y266936D01*
X740435Y266982D01*
X740412Y267021D01*
X740392Y267073D01*
X740380Y267089D01*
X740372Y267107D01*
X740324Y267167D01*
X740309Y267193D01*
X740292Y267207D01*
X740267Y267238D01*
X734313Y273192D01*
X734313Y279702D01*
X734299Y279792D01*
X734291Y279883D01*
X734279Y279913D01*
X734274Y279945D01*
X734231Y280025D01*
X734195Y280109D01*
X734169Y280141D01*
X734158Y280162D01*
X734135Y280184D01*
X734090Y280240D01*
X694514Y319816D01*
X694440Y319869D01*
X694371Y319929D01*
X694341Y319941D01*
X694314Y319960D01*
X694228Y319987D01*
X694143Y320021D01*
X694102Y320025D01*
X694079Y320032D01*
X694047Y320031D01*
X693976Y320039D01*
X633649Y320039D01*
X633559Y320025D01*
X633468Y320017D01*
X633438Y320005D01*
X633406Y320000D01*
X633326Y319957D01*
X633242Y319921D01*
X633209Y319895D01*
X633189Y319884D01*
X633167Y319861D01*
X633111Y319816D01*
X631333Y318038D01*
X631321Y318022D01*
X631306Y318010D01*
X631250Y317923D01*
X631189Y317839D01*
X631183Y317819D01*
X631173Y317803D01*
X631147Y317702D01*
X631117Y317603D01*
X631117Y317584D01*
X631112Y317564D01*
X631120Y317461D01*
X631123Y317358D01*
X631130Y317339D01*
X631132Y317319D01*
X631172Y317224D01*
X631208Y317127D01*
X631220Y317111D01*
X631228Y317093D01*
X631333Y316962D01*
X637287Y311008D01*
X637287Y298592D01*
X631333Y292638D01*
X631321Y292622D01*
X631306Y292610D01*
X631249Y292522D01*
X631189Y292439D01*
X631183Y292420D01*
X631173Y292403D01*
X631147Y292302D01*
X631117Y292203D01*
X631117Y292184D01*
X631112Y292164D01*
X631120Y292061D01*
X631123Y291958D01*
X631130Y291939D01*
X631132Y291919D01*
X631172Y291824D01*
X631208Y291727D01*
X631220Y291711D01*
X631228Y291693D01*
X631333Y291562D01*
X637287Y285608D01*
X637287Y273192D01*
X631333Y267238D01*
X631321Y267222D01*
X631306Y267210D01*
X631277Y267165D01*
X631243Y267130D01*
X631223Y267085D01*
X631189Y267039D01*
X631183Y267020D01*
X631173Y267003D01*
X631159Y266947D01*
X631140Y266907D01*
X631135Y266862D01*
X631117Y266803D01*
X631117Y266784D01*
X631112Y266764D01*
X631117Y266703D01*
X631113Y266663D01*
X631121Y266622D01*
X631123Y266558D01*
X631130Y266539D01*
X631132Y266519D01*
X631157Y266459D01*
X631165Y266422D01*
X631185Y266389D01*
X631208Y266327D01*
X631220Y266311D01*
X631228Y266293D01*
X631285Y266221D01*
X631291Y266211D01*
X631298Y266206D01*
X631333Y266162D01*
X637287Y260208D01*
X637287Y252261D01*
X637301Y252171D01*
X637309Y252080D01*
X637321Y252050D01*
X637326Y252018D01*
X637369Y251938D01*
X637405Y251854D01*
X637431Y251822D01*
X637442Y251801D01*
X637465Y251779D01*
X637486Y251752D01*
X637489Y251747D01*
X637492Y251745D01*
X637510Y251723D01*
X672753Y216480D01*
X674145Y213119D01*
X674145Y179103D01*
X674159Y179013D01*
X674167Y178922D01*
X674179Y178892D01*
X674184Y178860D01*
X674227Y178780D01*
X674263Y178696D01*
X674289Y178664D01*
X674300Y178643D01*
X674323Y178621D01*
X674368Y178565D01*
X686565Y166368D01*
X686639Y166315D01*
X686708Y166255D01*
X686738Y166243D01*
X686765Y166224D01*
X686852Y166197D01*
X686936Y166163D01*
X686977Y166159D01*
X687000Y166152D01*
X687032Y166153D01*
X687103Y166145D01*
X708945Y166145D01*
X709010Y166155D01*
X709075Y166156D01*
X709155Y166179D01*
X709188Y166184D01*
X709205Y166194D01*
X709236Y166203D01*
X711395Y167097D01*
X716605Y167097D01*
X721268Y165165D01*
X721362Y165143D01*
X721455Y165115D01*
X721482Y165115D01*
X721507Y165109D01*
X721604Y165118D01*
G37*
%LPC*%
G36*
X57029Y245045D02*
X57029Y245045D01*
X54788Y245973D01*
X53073Y247688D01*
X52145Y249929D01*
X52145Y316871D01*
X53073Y319112D01*
X54788Y320827D01*
X57029Y321755D01*
X123971Y321755D01*
X126212Y320827D01*
X127927Y319112D01*
X128855Y316871D01*
X128855Y249929D01*
X127927Y247688D01*
X126212Y245973D01*
X123971Y245045D01*
X57029Y245045D01*
G37*
%LPD*%
%LPC*%
G36*
X830652Y673583D02*
X830652Y673583D01*
X825610Y675672D01*
X821752Y679530D01*
X819663Y684572D01*
X819663Y690028D01*
X821752Y695070D01*
X825610Y698928D01*
X826499Y699297D01*
X826560Y699334D01*
X826625Y699364D01*
X826664Y699399D01*
X826708Y699426D01*
X826754Y699481D01*
X826807Y699530D01*
X826832Y699576D01*
X826865Y699616D01*
X826891Y699683D01*
X826925Y699746D01*
X826934Y699797D01*
X826953Y699845D01*
X826956Y699917D01*
X826969Y699988D01*
X826961Y700039D01*
X826963Y700091D01*
X826944Y700160D01*
X826933Y700231D01*
X826909Y700277D01*
X826895Y700327D01*
X826854Y700386D01*
X826822Y700450D01*
X826784Y700487D01*
X826755Y700529D01*
X826697Y700572D01*
X826646Y700622D01*
X826583Y700657D01*
X826557Y700676D01*
X826535Y700683D01*
X826499Y700703D01*
X825610Y701072D01*
X821752Y704930D01*
X819663Y709972D01*
X819663Y715428D01*
X821752Y720470D01*
X825610Y724328D01*
X826499Y724697D01*
X826560Y724734D01*
X826625Y724764D01*
X826664Y724799D01*
X826708Y724826D01*
X826754Y724881D01*
X826807Y724930D01*
X826832Y724976D01*
X826865Y725016D01*
X826891Y725083D01*
X826925Y725146D01*
X826934Y725197D01*
X826953Y725245D01*
X826956Y725317D01*
X826969Y725388D01*
X826961Y725439D01*
X826963Y725491D01*
X826944Y725560D01*
X826933Y725631D01*
X826909Y725677D01*
X826895Y725727D01*
X826854Y725786D01*
X826822Y725850D01*
X826784Y725887D01*
X826755Y725929D01*
X826697Y725972D01*
X826646Y726022D01*
X826583Y726057D01*
X826557Y726076D01*
X826535Y726083D01*
X826499Y726103D01*
X825610Y726472D01*
X821752Y730330D01*
X819663Y735372D01*
X819663Y740828D01*
X821752Y745870D01*
X825610Y749728D01*
X826499Y750097D01*
X826560Y750134D01*
X826625Y750164D01*
X826664Y750199D01*
X826708Y750226D01*
X826754Y750281D01*
X826807Y750330D01*
X826832Y750376D01*
X826865Y750416D01*
X826891Y750483D01*
X826925Y750546D01*
X826934Y750597D01*
X826953Y750645D01*
X826956Y750717D01*
X826969Y750788D01*
X826961Y750839D01*
X826963Y750891D01*
X826944Y750960D01*
X826933Y751031D01*
X826909Y751077D01*
X826895Y751127D01*
X826854Y751186D01*
X826822Y751250D01*
X826784Y751287D01*
X826755Y751329D01*
X826697Y751372D01*
X826646Y751422D01*
X826583Y751457D01*
X826557Y751476D01*
X826535Y751483D01*
X826499Y751503D01*
X825610Y751872D01*
X821752Y755730D01*
X819663Y760772D01*
X819663Y766228D01*
X821752Y771270D01*
X825610Y775128D01*
X826499Y775497D01*
X826560Y775534D01*
X826625Y775564D01*
X826664Y775599D01*
X826708Y775626D01*
X826754Y775681D01*
X826807Y775730D01*
X826832Y775776D01*
X826865Y775816D01*
X826891Y775883D01*
X826925Y775946D01*
X826934Y775997D01*
X826953Y776045D01*
X826956Y776117D01*
X826969Y776188D01*
X826961Y776239D01*
X826963Y776291D01*
X826944Y776360D01*
X826933Y776431D01*
X826909Y776477D01*
X826895Y776527D01*
X826854Y776586D01*
X826822Y776650D01*
X826784Y776687D01*
X826755Y776729D01*
X826697Y776772D01*
X826646Y776822D01*
X826583Y776857D01*
X826557Y776876D01*
X826535Y776883D01*
X826499Y776903D01*
X825610Y777272D01*
X821752Y781130D01*
X819663Y786172D01*
X819663Y791628D01*
X821752Y796670D01*
X825610Y800528D01*
X830652Y802617D01*
X851348Y802617D01*
X856390Y800528D01*
X860248Y796670D01*
X862337Y791628D01*
X862337Y786172D01*
X860248Y781130D01*
X856390Y777272D01*
X855501Y776903D01*
X855440Y776866D01*
X855375Y776836D01*
X855336Y776801D01*
X855292Y776774D01*
X855246Y776718D01*
X855193Y776670D01*
X855168Y776624D01*
X855135Y776584D01*
X855109Y776517D01*
X855075Y776454D01*
X855066Y776403D01*
X855047Y776355D01*
X855044Y776283D01*
X855031Y776212D01*
X855039Y776161D01*
X855037Y776109D01*
X855056Y776040D01*
X855067Y775969D01*
X855091Y775923D01*
X855105Y775873D01*
X855146Y775814D01*
X855178Y775750D01*
X855216Y775713D01*
X855245Y775671D01*
X855303Y775628D01*
X855354Y775578D01*
X855417Y775543D01*
X855443Y775524D01*
X855465Y775516D01*
X855501Y775497D01*
X856390Y775128D01*
X860248Y771270D01*
X862337Y766228D01*
X862337Y760772D01*
X860248Y755730D01*
X856390Y751872D01*
X855501Y751503D01*
X855440Y751466D01*
X855375Y751436D01*
X855336Y751401D01*
X855292Y751374D01*
X855246Y751318D01*
X855193Y751270D01*
X855168Y751224D01*
X855135Y751184D01*
X855109Y751117D01*
X855075Y751054D01*
X855066Y751003D01*
X855047Y750955D01*
X855044Y750883D01*
X855031Y750812D01*
X855039Y750761D01*
X855037Y750709D01*
X855056Y750640D01*
X855067Y750569D01*
X855091Y750523D01*
X855105Y750473D01*
X855146Y750414D01*
X855178Y750350D01*
X855216Y750313D01*
X855245Y750271D01*
X855303Y750228D01*
X855354Y750178D01*
X855417Y750143D01*
X855443Y750124D01*
X855465Y750116D01*
X855501Y750097D01*
X856390Y749728D01*
X860248Y745870D01*
X862337Y740828D01*
X862337Y735372D01*
X860248Y730330D01*
X856390Y726472D01*
X855501Y726103D01*
X855440Y726066D01*
X855375Y726036D01*
X855336Y726001D01*
X855292Y725974D01*
X855246Y725918D01*
X855193Y725870D01*
X855168Y725824D01*
X855135Y725784D01*
X855109Y725717D01*
X855075Y725654D01*
X855066Y725603D01*
X855047Y725555D01*
X855044Y725483D01*
X855031Y725412D01*
X855039Y725361D01*
X855037Y725309D01*
X855056Y725240D01*
X855067Y725169D01*
X855091Y725123D01*
X855105Y725073D01*
X855146Y725014D01*
X855178Y724950D01*
X855216Y724913D01*
X855245Y724871D01*
X855303Y724828D01*
X855354Y724778D01*
X855417Y724743D01*
X855443Y724724D01*
X855465Y724716D01*
X855501Y724697D01*
X856390Y724328D01*
X860248Y720470D01*
X862337Y715428D01*
X862337Y709972D01*
X860248Y704930D01*
X856390Y701072D01*
X855501Y700703D01*
X855440Y700666D01*
X855375Y700636D01*
X855336Y700601D01*
X855292Y700574D01*
X855246Y700518D01*
X855193Y700470D01*
X855168Y700424D01*
X855135Y700384D01*
X855109Y700317D01*
X855075Y700254D01*
X855066Y700203D01*
X855047Y700155D01*
X855044Y700083D01*
X855031Y700012D01*
X855039Y699961D01*
X855037Y699909D01*
X855056Y699840D01*
X855067Y699769D01*
X855091Y699723D01*
X855105Y699673D01*
X855146Y699614D01*
X855178Y699550D01*
X855216Y699513D01*
X855245Y699471D01*
X855303Y699428D01*
X855354Y699378D01*
X855417Y699343D01*
X855443Y699324D01*
X855465Y699316D01*
X855501Y699297D01*
X856390Y698928D01*
X860248Y695070D01*
X862337Y690028D01*
X862337Y684572D01*
X860248Y679530D01*
X856390Y675672D01*
X851348Y673583D01*
X830652Y673583D01*
G37*
%LPD*%
%LPC*%
G36*
X45371Y914839D02*
X45371Y914839D01*
X36428Y917235D01*
X28411Y921864D01*
X21864Y928411D01*
X17235Y936428D01*
X14839Y945371D01*
X14839Y954629D01*
X17235Y963572D01*
X21864Y971589D01*
X28411Y978136D01*
X36428Y982765D01*
X45371Y985161D01*
X54629Y985161D01*
X63572Y982765D01*
X71589Y978136D01*
X78136Y971589D01*
X82765Y963572D01*
X85161Y954629D01*
X85161Y945371D01*
X82765Y936428D01*
X78136Y928411D01*
X71589Y921864D01*
X63572Y917235D01*
X54629Y914839D01*
X45371Y914839D01*
G37*
%LPD*%
%LPC*%
G36*
X945371Y914839D02*
X945371Y914839D01*
X936428Y917235D01*
X928411Y921864D01*
X921864Y928411D01*
X917235Y936428D01*
X914839Y945371D01*
X914839Y954629D01*
X917235Y963572D01*
X921864Y971589D01*
X928411Y978136D01*
X936428Y982765D01*
X945371Y985161D01*
X954629Y985161D01*
X963572Y982765D01*
X971589Y978136D01*
X978136Y971589D01*
X982765Y963572D01*
X985161Y954629D01*
X985161Y945371D01*
X982765Y936428D01*
X978136Y928411D01*
X971589Y921864D01*
X963572Y917235D01*
X954629Y914839D01*
X945371Y914839D01*
G37*
%LPD*%
%LPC*%
G36*
X45371Y14839D02*
X45371Y14839D01*
X36428Y17235D01*
X28411Y21864D01*
X21864Y28411D01*
X17235Y36428D01*
X14839Y45371D01*
X14839Y54629D01*
X17235Y63572D01*
X21864Y71589D01*
X28411Y78136D01*
X36428Y82765D01*
X45371Y85161D01*
X54629Y85161D01*
X63572Y82765D01*
X71589Y78136D01*
X78136Y71589D01*
X82765Y63572D01*
X85161Y54629D01*
X85161Y45371D01*
X82765Y36428D01*
X78136Y28411D01*
X71589Y21864D01*
X63572Y17235D01*
X54629Y14839D01*
X45371Y14839D01*
G37*
%LPD*%
%LPC*%
G36*
X86858Y330739D02*
X86858Y330739D01*
X79823Y332624D01*
X73516Y336266D01*
X68366Y341416D01*
X64724Y347723D01*
X62839Y354758D01*
X62839Y362042D01*
X64724Y369077D01*
X68366Y375384D01*
X73516Y380534D01*
X79823Y384176D01*
X86858Y386061D01*
X94142Y386061D01*
X101177Y384176D01*
X107484Y380534D01*
X112634Y375384D01*
X116276Y369077D01*
X118161Y362042D01*
X118161Y354758D01*
X116276Y347723D01*
X112634Y341416D01*
X107484Y336266D01*
X101177Y332624D01*
X94142Y330739D01*
X86858Y330739D01*
G37*
%LPD*%
%LPC*%
G36*
X286858Y680739D02*
X286858Y680739D01*
X279823Y682624D01*
X273516Y686266D01*
X268366Y691416D01*
X264724Y697723D01*
X262839Y704758D01*
X262839Y712042D01*
X264724Y719077D01*
X268366Y725384D01*
X273516Y730534D01*
X279823Y734176D01*
X286858Y736061D01*
X294142Y736061D01*
X301177Y734176D01*
X307484Y730534D01*
X312634Y725384D01*
X316276Y719077D01*
X318161Y712042D01*
X318161Y704758D01*
X316276Y697723D01*
X312634Y691416D01*
X307484Y686266D01*
X301177Y682624D01*
X294142Y680739D01*
X286858Y680739D01*
G37*
%LPD*%
%LPC*%
G36*
X340187Y68523D02*
X340187Y68523D01*
X335175Y70599D01*
X331339Y74435D01*
X329263Y79447D01*
X329263Y99953D01*
X331339Y104965D01*
X335175Y108801D01*
X340187Y110877D01*
X345613Y110877D01*
X350625Y108801D01*
X354461Y104965D01*
X354897Y103912D01*
X354935Y103851D01*
X354964Y103785D01*
X354999Y103747D01*
X355026Y103703D01*
X355082Y103657D01*
X355130Y103604D01*
X355176Y103579D01*
X355216Y103546D01*
X355283Y103520D01*
X355346Y103486D01*
X355397Y103476D01*
X355445Y103458D01*
X355517Y103455D01*
X355588Y103442D01*
X355639Y103450D01*
X355691Y103447D01*
X355760Y103467D01*
X355831Y103478D01*
X355877Y103501D01*
X355927Y103516D01*
X355986Y103557D01*
X356050Y103589D01*
X356087Y103627D01*
X356129Y103656D01*
X356172Y103714D01*
X356222Y103765D01*
X356257Y103828D01*
X356276Y103854D01*
X356283Y103876D01*
X356303Y103912D01*
X356739Y104965D01*
X360575Y108801D01*
X365587Y110877D01*
X371013Y110877D01*
X376025Y108801D01*
X379861Y104965D01*
X381937Y99953D01*
X381937Y79447D01*
X379861Y74435D01*
X376025Y70599D01*
X371013Y68523D01*
X365587Y68523D01*
X360575Y70599D01*
X356739Y74435D01*
X356303Y75488D01*
X356265Y75549D01*
X356236Y75615D01*
X356201Y75653D01*
X356174Y75697D01*
X356118Y75743D01*
X356070Y75796D01*
X356024Y75821D01*
X355984Y75854D01*
X355917Y75880D01*
X355854Y75914D01*
X355803Y75924D01*
X355755Y75942D01*
X355683Y75945D01*
X355612Y75958D01*
X355561Y75950D01*
X355509Y75953D01*
X355440Y75933D01*
X355369Y75922D01*
X355323Y75899D01*
X355273Y75884D01*
X355214Y75843D01*
X355150Y75811D01*
X355113Y75773D01*
X355071Y75744D01*
X355028Y75686D01*
X354978Y75635D01*
X354943Y75572D01*
X354924Y75546D01*
X354917Y75524D01*
X354897Y75488D01*
X354461Y74435D01*
X350625Y70599D01*
X345613Y68523D01*
X340187Y68523D01*
G37*
%LPD*%
G36*
X762039Y103450D02*
X762039Y103450D01*
X762091Y103447D01*
X762160Y103467D01*
X762231Y103478D01*
X762277Y103501D01*
X762327Y103516D01*
X762386Y103557D01*
X762450Y103589D01*
X762487Y103626D01*
X762529Y103656D01*
X762572Y103714D01*
X762622Y103765D01*
X762657Y103828D01*
X762676Y103854D01*
X762683Y103876D01*
X762703Y103912D01*
X763139Y104965D01*
X766348Y108174D01*
X766401Y108247D01*
X766461Y108317D01*
X766473Y108347D01*
X766492Y108373D01*
X766519Y108460D01*
X766553Y108545D01*
X766557Y108586D01*
X766564Y108608D01*
X766563Y108641D01*
X766571Y108712D01*
X766571Y188127D01*
X766557Y188217D01*
X766549Y188308D01*
X766537Y188338D01*
X766532Y188370D01*
X766489Y188451D01*
X766453Y188535D01*
X766427Y188567D01*
X766416Y188587D01*
X766393Y188610D01*
X766348Y188666D01*
X766017Y188997D01*
X764403Y192892D01*
X764403Y195271D01*
X764392Y195342D01*
X764390Y195413D01*
X764372Y195462D01*
X764364Y195514D01*
X764330Y195577D01*
X764305Y195644D01*
X764273Y195685D01*
X764248Y195731D01*
X764197Y195780D01*
X764152Y195837D01*
X764108Y195865D01*
X764070Y195901D01*
X764005Y195931D01*
X763945Y195970D01*
X763894Y195982D01*
X763847Y196004D01*
X763776Y196012D01*
X763706Y196030D01*
X763654Y196026D01*
X763603Y196031D01*
X763532Y196016D01*
X763461Y196010D01*
X763413Y195990D01*
X763362Y195979D01*
X763301Y195942D01*
X763235Y195914D01*
X763179Y195869D01*
X763151Y195853D01*
X763136Y195835D01*
X763104Y195809D01*
X755818Y188524D01*
X755807Y188508D01*
X755791Y188495D01*
X755735Y188408D01*
X755675Y188324D01*
X755669Y188305D01*
X755658Y188288D01*
X755633Y188188D01*
X755602Y188089D01*
X755603Y188069D01*
X755598Y188050D01*
X755606Y187947D01*
X755609Y187843D01*
X755616Y187824D01*
X755617Y187805D01*
X755657Y187710D01*
X755693Y187612D01*
X755706Y187596D01*
X755713Y187578D01*
X755818Y187447D01*
X760731Y182535D01*
X760731Y179323D01*
X750062Y179323D01*
X750042Y179320D01*
X750023Y179322D01*
X749921Y179300D01*
X749819Y179283D01*
X749802Y179274D01*
X749782Y179270D01*
X749693Y179217D01*
X749602Y179168D01*
X749588Y179154D01*
X749571Y179144D01*
X749504Y179065D01*
X749433Y178990D01*
X749424Y178972D01*
X749411Y178957D01*
X749372Y178860D01*
X749329Y178767D01*
X749327Y178747D01*
X749319Y178729D01*
X749301Y178562D01*
X749301Y177799D01*
X749299Y177799D01*
X749299Y178562D01*
X749296Y178582D01*
X749298Y178601D01*
X749276Y178703D01*
X749259Y178805D01*
X749250Y178822D01*
X749246Y178842D01*
X749193Y178931D01*
X749144Y179022D01*
X749130Y179036D01*
X749120Y179053D01*
X749041Y179120D01*
X748966Y179191D01*
X748948Y179200D01*
X748933Y179213D01*
X748837Y179252D01*
X748743Y179295D01*
X748723Y179297D01*
X748705Y179305D01*
X748538Y179323D01*
X737869Y179323D01*
X737869Y182535D01*
X742782Y187447D01*
X742793Y187463D01*
X742809Y187476D01*
X742865Y187563D01*
X742925Y187647D01*
X742931Y187666D01*
X742942Y187683D01*
X742967Y187783D01*
X742998Y187882D01*
X742997Y187902D01*
X743002Y187921D01*
X742994Y188024D01*
X742991Y188128D01*
X742984Y188147D01*
X742983Y188167D01*
X742943Y188261D01*
X742907Y188359D01*
X742894Y188375D01*
X742887Y188393D01*
X742782Y188524D01*
X734428Y196877D01*
X734370Y196919D01*
X734318Y196969D01*
X734271Y196991D01*
X734229Y197021D01*
X734160Y197042D01*
X734095Y197072D01*
X734043Y197078D01*
X733993Y197093D01*
X733922Y197091D01*
X733851Y197099D01*
X733800Y197088D01*
X733748Y197087D01*
X733680Y197062D01*
X733610Y197047D01*
X733566Y197020D01*
X733517Y197002D01*
X733461Y196958D01*
X733399Y196921D01*
X733365Y196881D01*
X733325Y196849D01*
X733286Y196788D01*
X733239Y196734D01*
X733220Y196686D01*
X733192Y196642D01*
X733174Y196572D01*
X733147Y196506D01*
X733139Y196434D01*
X733131Y196403D01*
X733133Y196380D01*
X733129Y196339D01*
X733129Y178682D01*
X733143Y178592D01*
X733151Y178501D01*
X733163Y178472D01*
X733168Y178440D01*
X733211Y178359D01*
X733247Y178275D01*
X733273Y178243D01*
X733284Y178222D01*
X733307Y178200D01*
X733352Y178144D01*
X736570Y174926D01*
X736628Y174884D01*
X736680Y174835D01*
X736727Y174813D01*
X736769Y174782D01*
X736838Y174761D01*
X736903Y174731D01*
X736955Y174725D01*
X737005Y174710D01*
X737076Y174712D01*
X737147Y174704D01*
X737198Y174715D01*
X737250Y174716D01*
X737318Y174741D01*
X737388Y174756D01*
X737433Y174783D01*
X737481Y174801D01*
X737537Y174846D01*
X737599Y174883D01*
X737633Y174922D01*
X737673Y174955D01*
X737712Y175015D01*
X737759Y175069D01*
X737778Y175118D01*
X737806Y175162D01*
X737824Y175231D01*
X737851Y175298D01*
X737859Y175369D01*
X737867Y175400D01*
X737865Y175423D01*
X737869Y175464D01*
X737869Y176277D01*
X747777Y176277D01*
X747777Y166369D01*
X746964Y166369D01*
X746894Y166358D01*
X746822Y166356D01*
X746773Y166338D01*
X746722Y166330D01*
X746658Y166296D01*
X746591Y166271D01*
X746550Y166239D01*
X746504Y166214D01*
X746455Y166162D01*
X746399Y166118D01*
X746371Y166074D01*
X746335Y166036D01*
X746305Y165971D01*
X746266Y165911D01*
X746253Y165860D01*
X746231Y165813D01*
X746223Y165742D01*
X746206Y165672D01*
X746210Y165620D01*
X746204Y165569D01*
X746219Y165498D01*
X746225Y165427D01*
X746245Y165379D01*
X746256Y165328D01*
X746293Y165267D01*
X746321Y165201D01*
X746366Y165145D01*
X746383Y165117D01*
X746400Y165102D01*
X746426Y165070D01*
X756191Y155305D01*
X757429Y152317D01*
X757429Y108712D01*
X757443Y108622D01*
X757451Y108531D01*
X757463Y108501D01*
X757468Y108469D01*
X757511Y108388D01*
X757547Y108305D01*
X757573Y108272D01*
X757584Y108252D01*
X757607Y108230D01*
X757652Y108174D01*
X760861Y104965D01*
X761297Y103912D01*
X761334Y103851D01*
X761364Y103785D01*
X761399Y103747D01*
X761426Y103703D01*
X761482Y103657D01*
X761530Y103604D01*
X761576Y103579D01*
X761616Y103546D01*
X761683Y103520D01*
X761746Y103486D01*
X761797Y103476D01*
X761845Y103458D01*
X761917Y103455D01*
X761988Y103442D01*
X762039Y103450D01*
G37*
%LPC*%
G36*
X292023Y284923D02*
X292023Y284923D01*
X292023Y318199D01*
X323092Y318199D01*
X323739Y318026D01*
X324318Y317691D01*
X324791Y317218D01*
X325126Y316639D01*
X325299Y315992D01*
X325299Y284923D01*
X292023Y284923D01*
G37*
%LPD*%
%LPC*%
G36*
X255701Y284923D02*
X255701Y284923D01*
X255701Y315992D01*
X255874Y316639D01*
X256209Y317218D01*
X256682Y317691D01*
X257261Y318026D01*
X257908Y318199D01*
X288977Y318199D01*
X288977Y284923D01*
X255701Y284923D01*
G37*
%LPD*%
%LPC*%
G36*
X292023Y248601D02*
X292023Y248601D01*
X292023Y281877D01*
X325299Y281877D01*
X325299Y250808D01*
X325126Y250161D01*
X324791Y249582D01*
X324318Y249109D01*
X323739Y248774D01*
X323092Y248601D01*
X292023Y248601D01*
G37*
%LPD*%
%LPC*%
G36*
X257908Y248601D02*
X257908Y248601D01*
X257261Y248774D01*
X256682Y249109D01*
X256209Y249582D01*
X255874Y250161D01*
X255701Y250808D01*
X255701Y281877D01*
X288977Y281877D01*
X288977Y248601D01*
X257908Y248601D01*
G37*
%LPD*%
%LPC*%
G36*
X830652Y825983D02*
X830652Y825983D01*
X825610Y828072D01*
X821752Y831930D01*
X819663Y836972D01*
X819663Y842428D01*
X821752Y847470D01*
X825610Y851328D01*
X830652Y853417D01*
X851348Y853417D01*
X856390Y851328D01*
X860248Y847470D01*
X862337Y842428D01*
X862337Y836972D01*
X860248Y831930D01*
X856390Y828072D01*
X851348Y825983D01*
X830652Y825983D01*
G37*
%LPD*%
%LPC*%
G36*
X830652Y876783D02*
X830652Y876783D01*
X825610Y878872D01*
X821752Y882730D01*
X819663Y887772D01*
X819663Y893228D01*
X821752Y898270D01*
X825610Y902128D01*
X830652Y904217D01*
X851348Y904217D01*
X856390Y902128D01*
X860248Y898270D01*
X862337Y893228D01*
X862337Y887772D01*
X860248Y882730D01*
X856390Y878872D01*
X851348Y876783D01*
X830652Y876783D01*
G37*
%LPD*%
%LPC*%
G36*
X129352Y125983D02*
X129352Y125983D01*
X124310Y128072D01*
X120452Y131930D01*
X118363Y136972D01*
X118363Y142428D01*
X120452Y147470D01*
X124310Y151328D01*
X129352Y153417D01*
X150048Y153417D01*
X155090Y151328D01*
X158948Y147470D01*
X161037Y142428D01*
X161037Y136972D01*
X158948Y131930D01*
X155090Y128072D01*
X150048Y125983D01*
X129352Y125983D01*
G37*
%LPD*%
%LPC*%
G36*
X394652Y876783D02*
X394652Y876783D01*
X389610Y878872D01*
X385752Y882730D01*
X383663Y887772D01*
X383663Y893228D01*
X385752Y898270D01*
X389610Y902128D01*
X394652Y904217D01*
X415348Y904217D01*
X420390Y902128D01*
X424248Y898270D01*
X426337Y893228D01*
X426337Y887772D01*
X424248Y882730D01*
X420390Y878872D01*
X415348Y876783D01*
X394652Y876783D01*
G37*
%LPD*%
%LPC*%
G36*
X830652Y927583D02*
X830652Y927583D01*
X825610Y929672D01*
X821752Y933530D01*
X819663Y938572D01*
X819663Y944028D01*
X821752Y949070D01*
X825610Y952928D01*
X830652Y955017D01*
X851348Y955017D01*
X856390Y952928D01*
X860248Y949070D01*
X862337Y944028D01*
X862337Y938572D01*
X860248Y933530D01*
X856390Y929672D01*
X851348Y927583D01*
X830652Y927583D01*
G37*
%LPD*%
%LPC*%
G36*
X695787Y68523D02*
X695787Y68523D01*
X690775Y70599D01*
X686939Y74435D01*
X684863Y79447D01*
X684863Y99953D01*
X686939Y104965D01*
X690775Y108801D01*
X695787Y110877D01*
X701213Y110877D01*
X706225Y108801D01*
X710061Y104965D01*
X712137Y99953D01*
X712137Y79447D01*
X710061Y74435D01*
X706225Y70599D01*
X701213Y68523D01*
X695787Y68523D01*
G37*
%LPD*%
%LPC*%
G36*
X58239Y126999D02*
X58239Y126999D01*
X50799Y134439D01*
X50799Y144961D01*
X58239Y152401D01*
X68761Y152401D01*
X76201Y144961D01*
X76201Y134439D01*
X68761Y126999D01*
X58239Y126999D01*
G37*
%LPD*%
%LPC*%
G36*
X842523Y917423D02*
X842523Y917423D01*
X842523Y926061D01*
X849420Y926061D01*
X850999Y925811D01*
X852520Y925316D01*
X853945Y924590D01*
X855239Y923650D01*
X856370Y922519D01*
X857310Y921225D01*
X858036Y919800D01*
X858531Y918279D01*
X858666Y917423D01*
X842523Y917423D01*
G37*
%LPD*%
%LPC*%
G36*
X406523Y917423D02*
X406523Y917423D01*
X406523Y926061D01*
X413420Y926061D01*
X414999Y925811D01*
X416520Y925316D01*
X417945Y924590D01*
X419239Y923650D01*
X420370Y922519D01*
X421310Y921225D01*
X422036Y919800D01*
X422531Y918279D01*
X422666Y917423D01*
X406523Y917423D01*
G37*
%LPD*%
%LPC*%
G36*
X406523Y460223D02*
X406523Y460223D01*
X406523Y468861D01*
X413420Y468861D01*
X414999Y468611D01*
X416520Y468116D01*
X417945Y467390D01*
X419239Y466450D01*
X420370Y465319D01*
X421310Y464025D01*
X422036Y462600D01*
X422531Y461079D01*
X422666Y460223D01*
X406523Y460223D01*
G37*
%LPD*%
%LPC*%
G36*
X842523Y815823D02*
X842523Y815823D01*
X842523Y824461D01*
X849420Y824461D01*
X850999Y824211D01*
X852520Y823716D01*
X853945Y822990D01*
X855239Y822050D01*
X856370Y820919D01*
X857310Y819625D01*
X858036Y818200D01*
X858531Y816679D01*
X858666Y815823D01*
X842523Y815823D01*
G37*
%LPD*%
%LPC*%
G36*
X141223Y166623D02*
X141223Y166623D01*
X141223Y175261D01*
X148120Y175261D01*
X149699Y175011D01*
X151220Y174516D01*
X152645Y173790D01*
X153939Y172850D01*
X155070Y171719D01*
X156010Y170425D01*
X156736Y169000D01*
X157231Y167479D01*
X157366Y166623D01*
X141223Y166623D01*
G37*
%LPD*%
%LPC*%
G36*
X842523Y460223D02*
X842523Y460223D01*
X842523Y468861D01*
X849420Y468861D01*
X850999Y468611D01*
X852520Y468116D01*
X853945Y467390D01*
X855239Y466450D01*
X856370Y465319D01*
X857310Y464025D01*
X858036Y462600D01*
X858531Y461079D01*
X858666Y460223D01*
X842523Y460223D01*
G37*
%LPD*%
%LPC*%
G36*
X842523Y866623D02*
X842523Y866623D01*
X842523Y875261D01*
X849420Y875261D01*
X850999Y875011D01*
X852520Y874516D01*
X853945Y873790D01*
X855239Y872850D01*
X856370Y871719D01*
X857310Y870425D01*
X858036Y869000D01*
X858531Y867479D01*
X858666Y866623D01*
X842523Y866623D01*
G37*
%LPD*%
%LPC*%
G36*
X406523Y866623D02*
X406523Y866623D01*
X406523Y875261D01*
X413420Y875261D01*
X414999Y875011D01*
X416520Y874516D01*
X417945Y873790D01*
X419239Y872850D01*
X420370Y871719D01*
X421310Y870425D01*
X422036Y869000D01*
X422531Y867479D01*
X422666Y866623D01*
X406523Y866623D01*
G37*
%LPD*%
%LPC*%
G36*
X842523Y663423D02*
X842523Y663423D01*
X842523Y672061D01*
X849420Y672061D01*
X850999Y671811D01*
X852520Y671316D01*
X853945Y670590D01*
X855239Y669650D01*
X856370Y668519D01*
X857310Y667225D01*
X858036Y665800D01*
X858531Y664279D01*
X858666Y663423D01*
X842523Y663423D01*
G37*
%LPD*%
%LPC*%
G36*
X842523Y485623D02*
X842523Y485623D01*
X842523Y494261D01*
X849420Y494261D01*
X850999Y494011D01*
X852520Y493516D01*
X853945Y492790D01*
X855239Y491850D01*
X856370Y490719D01*
X857310Y489425D01*
X858036Y488000D01*
X858531Y486479D01*
X858666Y485623D01*
X842523Y485623D01*
G37*
%LPD*%
%LPC*%
G36*
X406523Y485623D02*
X406523Y485623D01*
X406523Y494261D01*
X413420Y494261D01*
X414999Y494011D01*
X416520Y493516D01*
X417945Y492790D01*
X419239Y491850D01*
X420370Y490719D01*
X421310Y489425D01*
X422036Y488000D01*
X422531Y486479D01*
X422666Y485623D01*
X406523Y485623D01*
G37*
%LPD*%
%LPC*%
G36*
X823334Y917423D02*
X823334Y917423D01*
X823469Y918279D01*
X823964Y919800D01*
X824690Y921225D01*
X825630Y922519D01*
X826761Y923650D01*
X828055Y924590D01*
X829480Y925316D01*
X831001Y925811D01*
X832580Y926061D01*
X839477Y926061D01*
X839477Y917423D01*
X823334Y917423D01*
G37*
%LPD*%
%LPC*%
G36*
X387334Y917423D02*
X387334Y917423D01*
X387469Y918279D01*
X387964Y919800D01*
X388690Y921225D01*
X389630Y922519D01*
X390761Y923650D01*
X392055Y924590D01*
X393480Y925316D01*
X395001Y925811D01*
X396580Y926061D01*
X403477Y926061D01*
X403477Y917423D01*
X387334Y917423D01*
G37*
%LPD*%
%LPC*%
G36*
X122034Y166623D02*
X122034Y166623D01*
X122169Y167479D01*
X122664Y169000D01*
X123390Y170425D01*
X124330Y171719D01*
X125461Y172850D01*
X126755Y173790D01*
X128180Y174516D01*
X129701Y175011D01*
X131280Y175261D01*
X138177Y175261D01*
X138177Y166623D01*
X122034Y166623D01*
G37*
%LPD*%
%LPC*%
G36*
X823334Y663423D02*
X823334Y663423D01*
X823469Y664279D01*
X823964Y665800D01*
X824690Y667225D01*
X825630Y668519D01*
X826761Y669650D01*
X828055Y670590D01*
X829480Y671316D01*
X831001Y671811D01*
X832580Y672061D01*
X839477Y672061D01*
X839477Y663423D01*
X823334Y663423D01*
G37*
%LPD*%
%LPC*%
G36*
X387334Y866623D02*
X387334Y866623D01*
X387469Y867479D01*
X387964Y869000D01*
X388690Y870425D01*
X389630Y871719D01*
X390761Y872850D01*
X392055Y873790D01*
X393480Y874516D01*
X395001Y875011D01*
X396580Y875261D01*
X403477Y875261D01*
X403477Y866623D01*
X387334Y866623D01*
G37*
%LPD*%
%LPC*%
G36*
X823334Y815823D02*
X823334Y815823D01*
X823469Y816679D01*
X823964Y818200D01*
X824690Y819625D01*
X825630Y820919D01*
X826761Y822050D01*
X828055Y822990D01*
X829480Y823716D01*
X831001Y824211D01*
X832580Y824461D01*
X839477Y824461D01*
X839477Y815823D01*
X823334Y815823D01*
G37*
%LPD*%
%LPC*%
G36*
X823334Y866623D02*
X823334Y866623D01*
X823469Y867479D01*
X823964Y869000D01*
X824690Y870425D01*
X825630Y871719D01*
X826761Y872850D01*
X828055Y873790D01*
X829480Y874516D01*
X831001Y875011D01*
X832580Y875261D01*
X839477Y875261D01*
X839477Y866623D01*
X823334Y866623D01*
G37*
%LPD*%
%LPC*%
G36*
X387334Y485623D02*
X387334Y485623D01*
X387469Y486479D01*
X387964Y488000D01*
X388690Y489425D01*
X389630Y490719D01*
X390761Y491850D01*
X392055Y492790D01*
X393480Y493516D01*
X395001Y494011D01*
X396580Y494261D01*
X403477Y494261D01*
X403477Y485623D01*
X387334Y485623D01*
G37*
%LPD*%
%LPC*%
G36*
X387334Y460223D02*
X387334Y460223D01*
X387469Y461079D01*
X387964Y462600D01*
X388690Y464025D01*
X389630Y465319D01*
X390761Y466450D01*
X392055Y467390D01*
X393480Y468116D01*
X395001Y468611D01*
X396580Y468861D01*
X403477Y468861D01*
X403477Y460223D01*
X387334Y460223D01*
G37*
%LPD*%
%LPC*%
G36*
X842523Y905739D02*
X842523Y905739D01*
X842523Y914377D01*
X858666Y914377D01*
X858531Y913521D01*
X858036Y912000D01*
X857310Y910575D01*
X856370Y909281D01*
X855239Y908150D01*
X853945Y907210D01*
X852520Y906484D01*
X850999Y905989D01*
X849420Y905739D01*
X842523Y905739D01*
G37*
%LPD*%
%LPC*%
G36*
X406523Y905739D02*
X406523Y905739D01*
X406523Y914377D01*
X422666Y914377D01*
X422531Y913521D01*
X422036Y912000D01*
X421310Y910575D01*
X420370Y909281D01*
X419239Y908150D01*
X417945Y907210D01*
X416520Y906484D01*
X414999Y905989D01*
X413420Y905739D01*
X406523Y905739D01*
G37*
%LPD*%
%LPC*%
G36*
X406523Y854939D02*
X406523Y854939D01*
X406523Y863577D01*
X422666Y863577D01*
X422531Y862721D01*
X422036Y861200D01*
X421310Y859775D01*
X420370Y858481D01*
X419239Y857350D01*
X417945Y856410D01*
X416520Y855684D01*
X414999Y855189D01*
X413420Y854939D01*
X406523Y854939D01*
G37*
%LPD*%
%LPC*%
G36*
X842523Y854939D02*
X842523Y854939D01*
X842523Y863577D01*
X858666Y863577D01*
X858531Y862721D01*
X858036Y861200D01*
X857310Y859775D01*
X856370Y858481D01*
X855239Y857350D01*
X853945Y856410D01*
X852520Y855684D01*
X850999Y855189D01*
X849420Y854939D01*
X842523Y854939D01*
G37*
%LPD*%
%LPC*%
G36*
X842523Y804139D02*
X842523Y804139D01*
X842523Y812777D01*
X858666Y812777D01*
X858531Y811921D01*
X858036Y810400D01*
X857310Y808975D01*
X856370Y807681D01*
X855239Y806550D01*
X853945Y805610D01*
X852520Y804884D01*
X850999Y804389D01*
X849420Y804139D01*
X842523Y804139D01*
G37*
%LPD*%
%LPC*%
G36*
X842523Y473939D02*
X842523Y473939D01*
X842523Y482577D01*
X858666Y482577D01*
X858531Y481721D01*
X858036Y480200D01*
X857310Y478775D01*
X856370Y477481D01*
X855239Y476350D01*
X853945Y475410D01*
X852520Y474684D01*
X850999Y474189D01*
X849420Y473939D01*
X842523Y473939D01*
G37*
%LPD*%
%LPC*%
G36*
X406523Y473939D02*
X406523Y473939D01*
X406523Y482577D01*
X422666Y482577D01*
X422531Y481721D01*
X422036Y480200D01*
X421310Y478775D01*
X420370Y477481D01*
X419239Y476350D01*
X417945Y475410D01*
X416520Y474684D01*
X414999Y474189D01*
X413420Y473939D01*
X406523Y473939D01*
G37*
%LPD*%
%LPC*%
G36*
X842523Y651739D02*
X842523Y651739D01*
X842523Y660377D01*
X858666Y660377D01*
X858531Y659521D01*
X858036Y658000D01*
X857310Y656575D01*
X856370Y655281D01*
X855239Y654150D01*
X853945Y653210D01*
X852520Y652484D01*
X850999Y651989D01*
X849420Y651739D01*
X842523Y651739D01*
G37*
%LPD*%
%LPC*%
G36*
X842523Y448539D02*
X842523Y448539D01*
X842523Y457177D01*
X858666Y457177D01*
X858531Y456321D01*
X858036Y454800D01*
X857310Y453375D01*
X856370Y452081D01*
X855239Y450950D01*
X853945Y450010D01*
X852520Y449284D01*
X850999Y448789D01*
X849420Y448539D01*
X842523Y448539D01*
G37*
%LPD*%
%LPC*%
G36*
X406523Y448539D02*
X406523Y448539D01*
X406523Y457177D01*
X422666Y457177D01*
X422531Y456321D01*
X422036Y454800D01*
X421310Y453375D01*
X420370Y452081D01*
X419239Y450950D01*
X417945Y450010D01*
X416520Y449284D01*
X414999Y448789D01*
X413420Y448539D01*
X406523Y448539D01*
G37*
%LPD*%
%LPC*%
G36*
X141223Y154939D02*
X141223Y154939D01*
X141223Y163577D01*
X157366Y163577D01*
X157231Y162721D01*
X156736Y161200D01*
X156010Y159775D01*
X155070Y158481D01*
X153939Y157350D01*
X152645Y156410D01*
X151220Y155684D01*
X149699Y155189D01*
X148120Y154939D01*
X141223Y154939D01*
G37*
%LPD*%
%LPC*%
G36*
X396580Y473939D02*
X396580Y473939D01*
X395001Y474189D01*
X393480Y474684D01*
X392055Y475410D01*
X390761Y476350D01*
X389630Y477481D01*
X388690Y478775D01*
X387964Y480200D01*
X387469Y481721D01*
X387334Y482577D01*
X403477Y482577D01*
X403477Y473939D01*
X396580Y473939D01*
G37*
%LPD*%
%LPC*%
G36*
X832580Y651739D02*
X832580Y651739D01*
X831001Y651989D01*
X829480Y652484D01*
X828055Y653210D01*
X826761Y654150D01*
X825630Y655281D01*
X824690Y656575D01*
X823964Y658000D01*
X823469Y659521D01*
X823334Y660377D01*
X839477Y660377D01*
X839477Y651739D01*
X832580Y651739D01*
G37*
%LPD*%
%LPC*%
G36*
X832580Y804139D02*
X832580Y804139D01*
X831001Y804389D01*
X829480Y804884D01*
X828055Y805610D01*
X826761Y806550D01*
X825630Y807681D01*
X824690Y808975D01*
X823964Y810400D01*
X823469Y811921D01*
X823334Y812777D01*
X839477Y812777D01*
X839477Y804139D01*
X832580Y804139D01*
G37*
%LPD*%
%LPC*%
G36*
X396580Y448539D02*
X396580Y448539D01*
X395001Y448789D01*
X393480Y449284D01*
X392055Y450010D01*
X390761Y450950D01*
X389630Y452081D01*
X388690Y453375D01*
X387964Y454800D01*
X387469Y456321D01*
X387334Y457177D01*
X403477Y457177D01*
X403477Y448539D01*
X396580Y448539D01*
G37*
%LPD*%
%LPC*%
G36*
X396580Y854939D02*
X396580Y854939D01*
X395001Y855189D01*
X393480Y855684D01*
X392055Y856410D01*
X390761Y857350D01*
X389630Y858481D01*
X388690Y859775D01*
X387964Y861200D01*
X387469Y862721D01*
X387334Y863577D01*
X403477Y863577D01*
X403477Y854939D01*
X396580Y854939D01*
G37*
%LPD*%
%LPC*%
G36*
X832580Y854939D02*
X832580Y854939D01*
X831001Y855189D01*
X829480Y855684D01*
X828055Y856410D01*
X826761Y857350D01*
X825630Y858481D01*
X824690Y859775D01*
X823964Y861200D01*
X823469Y862721D01*
X823334Y863577D01*
X839477Y863577D01*
X839477Y854939D01*
X832580Y854939D01*
G37*
%LPD*%
%LPC*%
G36*
X832580Y905739D02*
X832580Y905739D01*
X831001Y905989D01*
X829480Y906484D01*
X828055Y907210D01*
X826761Y908150D01*
X825630Y909281D01*
X824690Y910575D01*
X823964Y912000D01*
X823469Y913521D01*
X823334Y914377D01*
X839477Y914377D01*
X839477Y905739D01*
X832580Y905739D01*
G37*
%LPD*%
%LPC*%
G36*
X396580Y905739D02*
X396580Y905739D01*
X395001Y905989D01*
X393480Y906484D01*
X392055Y907210D01*
X390761Y908150D01*
X389630Y909281D01*
X388690Y910575D01*
X387964Y912000D01*
X387469Y913521D01*
X387334Y914377D01*
X403477Y914377D01*
X403477Y905739D01*
X396580Y905739D01*
G37*
%LPD*%
%LPC*%
G36*
X131280Y154939D02*
X131280Y154939D01*
X129701Y155189D01*
X128180Y155684D01*
X126755Y156410D01*
X125461Y157350D01*
X124330Y158481D01*
X123390Y159775D01*
X122664Y161200D01*
X122169Y162721D01*
X122034Y163577D01*
X138177Y163577D01*
X138177Y154939D01*
X131280Y154939D01*
G37*
%LPD*%
%LPC*%
G36*
X496823Y91223D02*
X496823Y91223D01*
X496823Y107205D01*
X497661Y107073D01*
X499170Y106582D01*
X500583Y105862D01*
X501867Y104929D01*
X502989Y103807D01*
X503922Y102523D01*
X504642Y101110D01*
X505133Y99601D01*
X505381Y98033D01*
X505381Y91223D01*
X496823Y91223D01*
G37*
%LPD*%
%LPC*%
G36*
X319023Y91223D02*
X319023Y91223D01*
X319023Y107205D01*
X319861Y107073D01*
X321370Y106582D01*
X322783Y105862D01*
X324067Y104929D01*
X325189Y103807D01*
X326122Y102523D01*
X326842Y101110D01*
X327333Y99601D01*
X327581Y98033D01*
X327581Y91223D01*
X319023Y91223D01*
G37*
%LPD*%
%LPC*%
G36*
X725423Y91223D02*
X725423Y91223D01*
X725423Y107205D01*
X726261Y107073D01*
X727770Y106582D01*
X729183Y105862D01*
X730467Y104929D01*
X731589Y103807D01*
X732522Y102523D01*
X733242Y101110D01*
X733733Y99601D01*
X733981Y98033D01*
X733981Y91223D01*
X725423Y91223D01*
G37*
%LPD*%
%LPC*%
G36*
X319023Y88177D02*
X319023Y88177D01*
X327581Y88177D01*
X327581Y81367D01*
X327333Y79799D01*
X326842Y78290D01*
X326122Y76877D01*
X325189Y75593D01*
X324067Y74471D01*
X322783Y73538D01*
X321370Y72818D01*
X319861Y72327D01*
X319023Y72195D01*
X319023Y88177D01*
G37*
%LPD*%
%LPC*%
G36*
X725423Y88177D02*
X725423Y88177D01*
X733981Y88177D01*
X733981Y81367D01*
X733733Y79799D01*
X733242Y78290D01*
X732522Y76877D01*
X731589Y75593D01*
X730467Y74471D01*
X729183Y73538D01*
X727770Y72818D01*
X726261Y72327D01*
X725423Y72195D01*
X725423Y88177D01*
G37*
%LPD*%
%LPC*%
G36*
X496823Y88177D02*
X496823Y88177D01*
X505381Y88177D01*
X505381Y81367D01*
X505133Y79799D01*
X504642Y78290D01*
X503922Y76877D01*
X502989Y75593D01*
X501867Y74471D01*
X500583Y73538D01*
X499170Y72818D01*
X497661Y72327D01*
X496823Y72195D01*
X496823Y88177D01*
G37*
%LPD*%
%LPC*%
G36*
X307419Y91223D02*
X307419Y91223D01*
X307419Y98033D01*
X307667Y99601D01*
X308158Y101110D01*
X308878Y102523D01*
X309811Y103807D01*
X310933Y104929D01*
X312217Y105862D01*
X313630Y106582D01*
X315139Y107073D01*
X315977Y107205D01*
X315977Y91223D01*
X307419Y91223D01*
G37*
%LPD*%
%LPC*%
G36*
X485219Y91223D02*
X485219Y91223D01*
X485219Y98033D01*
X485467Y99601D01*
X485958Y101110D01*
X486678Y102523D01*
X487611Y103807D01*
X488733Y104929D01*
X490017Y105862D01*
X491430Y106582D01*
X492939Y107073D01*
X493777Y107205D01*
X493777Y91223D01*
X485219Y91223D01*
G37*
%LPD*%
%LPC*%
G36*
X713819Y91223D02*
X713819Y91223D01*
X713819Y98033D01*
X714067Y99601D01*
X714558Y101110D01*
X715278Y102523D01*
X716211Y103807D01*
X717333Y104929D01*
X718617Y105862D01*
X720030Y106582D01*
X721539Y107073D01*
X722377Y107205D01*
X722377Y91223D01*
X713819Y91223D01*
G37*
%LPD*%
%LPC*%
G36*
X492939Y72327D02*
X492939Y72327D01*
X491430Y72818D01*
X490017Y73538D01*
X488733Y74471D01*
X487611Y75593D01*
X486678Y76877D01*
X485958Y78290D01*
X485467Y79799D01*
X485219Y81367D01*
X485219Y88177D01*
X493777Y88177D01*
X493777Y72195D01*
X492939Y72327D01*
G37*
%LPD*%
%LPC*%
G36*
X721539Y72327D02*
X721539Y72327D01*
X720030Y72818D01*
X718617Y73538D01*
X717333Y74471D01*
X716211Y75593D01*
X715278Y76877D01*
X714558Y78290D01*
X714067Y79799D01*
X713819Y81367D01*
X713819Y88177D01*
X722377Y88177D01*
X722377Y72195D01*
X721539Y72327D01*
G37*
%LPD*%
%LPC*%
G36*
X315139Y72327D02*
X315139Y72327D01*
X313630Y72818D01*
X312217Y73538D01*
X310933Y74471D01*
X309811Y75593D01*
X308878Y76877D01*
X308158Y78290D01*
X307667Y79799D01*
X307419Y81367D01*
X307419Y88177D01*
X315977Y88177D01*
X315977Y72195D01*
X315139Y72327D01*
G37*
%LPD*%
%LPC*%
G36*
X623823Y357123D02*
X623823Y357123D01*
X623823Y367031D01*
X627035Y367031D01*
X633731Y360335D01*
X633731Y357123D01*
X623823Y357123D01*
G37*
%LPD*%
%LPC*%
G36*
X610869Y357123D02*
X610869Y357123D01*
X610869Y360335D01*
X617565Y367031D01*
X620777Y367031D01*
X620777Y357123D01*
X610869Y357123D01*
G37*
%LPD*%
%LPC*%
G36*
X623823Y166369D02*
X623823Y166369D01*
X623823Y176277D01*
X633731Y176277D01*
X633731Y173065D01*
X627035Y166369D01*
X623823Y166369D01*
G37*
%LPD*%
%LPC*%
G36*
X750823Y166369D02*
X750823Y166369D01*
X750823Y176277D01*
X760731Y176277D01*
X760731Y173065D01*
X754035Y166369D01*
X750823Y166369D01*
G37*
%LPD*%
%LPC*%
G36*
X617565Y166369D02*
X617565Y166369D01*
X610869Y173065D01*
X610869Y176277D01*
X620777Y176277D01*
X620777Y166369D01*
X617565Y166369D01*
G37*
%LPD*%
%LPC*%
G36*
X242823Y166623D02*
X242823Y166623D01*
X242823Y174245D01*
X245088Y174245D01*
X250445Y168888D01*
X250445Y166623D01*
X242823Y166623D01*
G37*
%LPD*%
%LPC*%
G36*
X65023Y166623D02*
X65023Y166623D01*
X65023Y174245D01*
X67288Y174245D01*
X72645Y168888D01*
X72645Y166623D01*
X65023Y166623D01*
G37*
%LPD*%
%LPC*%
G36*
X65023Y155955D02*
X65023Y155955D01*
X65023Y163577D01*
X72645Y163577D01*
X72645Y161312D01*
X67288Y155955D01*
X65023Y155955D01*
G37*
%LPD*%
%LPC*%
G36*
X54355Y166623D02*
X54355Y166623D01*
X54355Y168888D01*
X59712Y174245D01*
X61977Y174245D01*
X61977Y166623D01*
X54355Y166623D01*
G37*
%LPD*%
%LPC*%
G36*
X232155Y166623D02*
X232155Y166623D01*
X232155Y168888D01*
X237512Y174245D01*
X239777Y174245D01*
X239777Y166623D01*
X232155Y166623D01*
G37*
%LPD*%
%LPC*%
G36*
X242823Y155955D02*
X242823Y155955D01*
X242823Y163577D01*
X250445Y163577D01*
X250445Y161312D01*
X245088Y155955D01*
X242823Y155955D01*
G37*
%LPD*%
%LPC*%
G36*
X237512Y155955D02*
X237512Y155955D01*
X232155Y161312D01*
X232155Y163577D01*
X239777Y163577D01*
X239777Y155955D01*
X237512Y155955D01*
G37*
%LPD*%
%LPC*%
G36*
X59712Y155955D02*
X59712Y155955D01*
X54355Y161312D01*
X54355Y163577D01*
X61977Y163577D01*
X61977Y155955D01*
X59712Y155955D01*
G37*
%LPD*%
%LPC*%
G36*
X404999Y458699D02*
X404999Y458699D01*
X404999Y458701D01*
X405001Y458701D01*
X405001Y458699D01*
X404999Y458699D01*
G37*
%LPD*%
%LPC*%
G36*
X404999Y865099D02*
X404999Y865099D01*
X404999Y865101D01*
X405001Y865101D01*
X405001Y865099D01*
X404999Y865099D01*
G37*
%LPD*%
%LPC*%
G36*
X404999Y915899D02*
X404999Y915899D01*
X404999Y915901D01*
X405001Y915901D01*
X405001Y915899D01*
X404999Y915899D01*
G37*
%LPD*%
%LPC*%
G36*
X840999Y915899D02*
X840999Y915899D01*
X840999Y915901D01*
X841001Y915901D01*
X841001Y915899D01*
X840999Y915899D01*
G37*
%LPD*%
%LPC*%
G36*
X139699Y165099D02*
X139699Y165099D01*
X139699Y165101D01*
X139701Y165101D01*
X139701Y165099D01*
X139699Y165099D01*
G37*
%LPD*%
%LPC*%
G36*
X241299Y165099D02*
X241299Y165099D01*
X241299Y165101D01*
X241301Y165101D01*
X241301Y165099D01*
X241299Y165099D01*
G37*
%LPD*%
%LPC*%
G36*
X840999Y865099D02*
X840999Y865099D01*
X840999Y865101D01*
X841001Y865101D01*
X841001Y865099D01*
X840999Y865099D01*
G37*
%LPD*%
%LPC*%
G36*
X723899Y89699D02*
X723899Y89699D01*
X723899Y89701D01*
X723901Y89701D01*
X723901Y89699D01*
X723899Y89699D01*
G37*
%LPD*%
%LPC*%
G36*
X495299Y89699D02*
X495299Y89699D01*
X495299Y89701D01*
X495301Y89701D01*
X495301Y89699D01*
X495299Y89699D01*
G37*
%LPD*%
%LPC*%
G36*
X317499Y89699D02*
X317499Y89699D01*
X317499Y89701D01*
X317501Y89701D01*
X317501Y89699D01*
X317499Y89699D01*
G37*
%LPD*%
%LPC*%
G36*
X290499Y283399D02*
X290499Y283399D01*
X290499Y283401D01*
X290501Y283401D01*
X290501Y283399D01*
X290499Y283399D01*
G37*
%LPD*%
%LPC*%
G36*
X840999Y814299D02*
X840999Y814299D01*
X840999Y814301D01*
X841001Y814301D01*
X841001Y814299D01*
X840999Y814299D01*
G37*
%LPD*%
%LPC*%
G36*
X840999Y661899D02*
X840999Y661899D01*
X840999Y661901D01*
X841001Y661901D01*
X841001Y661899D01*
X840999Y661899D01*
G37*
%LPD*%
%LPC*%
G36*
X404999Y484099D02*
X404999Y484099D01*
X404999Y484101D01*
X405001Y484101D01*
X405001Y484099D01*
X404999Y484099D01*
G37*
%LPD*%
%LPC*%
G36*
X63499Y165099D02*
X63499Y165099D01*
X63499Y165101D01*
X63501Y165101D01*
X63501Y165099D01*
X63499Y165099D01*
G37*
%LPD*%
D10*
X63500Y139700D03*
X63500Y165100D03*
D11*
X241300Y190500D03*
X241300Y165100D03*
D12*
X749300Y330200D03*
X749300Y304800D03*
X749300Y279400D03*
X749300Y254000D03*
X749300Y228600D03*
X749300Y203200D03*
X749300Y177800D03*
D13*
X622300Y177800D03*
X622300Y203200D03*
X622300Y228600D03*
X622300Y254000D03*
X622300Y279400D03*
X622300Y304800D03*
X622300Y330200D03*
X622300Y355600D03*
D12*
X749300Y355600D03*
D14*
X412620Y941300D02*
X397380Y941300D01*
X397380Y915900D02*
X412620Y915900D01*
X412620Y890500D02*
X397380Y890500D01*
X397380Y865100D02*
X412620Y865100D01*
X412620Y839700D02*
X397380Y839700D01*
X397380Y814300D02*
X412620Y814300D01*
X412620Y788900D02*
X397380Y788900D01*
X397380Y763500D02*
X412620Y763500D01*
X412620Y738100D02*
X397380Y738100D01*
X397380Y712700D02*
X412620Y712700D01*
X412620Y687300D02*
X397380Y687300D01*
X397380Y661900D02*
X412620Y661900D01*
X412620Y636500D02*
X397380Y636500D01*
X397380Y611100D02*
X412620Y611100D01*
X412620Y585700D02*
X397380Y585700D01*
X397380Y560300D02*
X412620Y560300D01*
X412620Y534900D02*
X397380Y534900D01*
X397380Y509500D02*
X412620Y509500D01*
X412620Y484100D02*
X397380Y484100D01*
X397380Y458700D02*
X412620Y458700D01*
X147320Y139700D02*
X132080Y139700D01*
X132080Y165100D02*
X147320Y165100D01*
X147320Y190500D02*
X132080Y190500D01*
X833380Y458700D02*
X848620Y458700D01*
X848620Y484100D02*
X833380Y484100D01*
X833380Y509500D02*
X848620Y509500D01*
X848620Y534900D02*
X833380Y534900D01*
X833380Y560300D02*
X848620Y560300D01*
X848620Y585700D02*
X833380Y585700D01*
X833380Y611100D02*
X848620Y611100D01*
X848620Y636500D02*
X833380Y636500D01*
X833380Y661900D02*
X848620Y661900D01*
X848620Y687300D02*
X833380Y687300D01*
X833380Y712700D02*
X848620Y712700D01*
X848620Y738100D02*
X833380Y738100D01*
X833380Y763500D02*
X848620Y763500D01*
X848620Y788900D02*
X833380Y788900D01*
X833380Y814300D02*
X848620Y814300D01*
X848620Y839700D02*
X833380Y839700D01*
X833380Y865100D02*
X848620Y865100D01*
X848620Y890500D02*
X833380Y890500D01*
X833380Y915900D02*
X848620Y915900D01*
X848620Y941300D02*
X833380Y941300D01*
D15*
X290500Y283400D03*
X90500Y283400D03*
X90500Y783400D03*
X290500Y783400D03*
D16*
X596900Y97240D02*
X596900Y82160D01*
X571500Y82160D02*
X571500Y97240D01*
X546100Y97240D02*
X546100Y82160D01*
X520700Y82160D02*
X520700Y97240D01*
X495300Y97240D02*
X495300Y82160D01*
X469900Y82160D02*
X469900Y97240D01*
X825500Y97240D02*
X825500Y82160D01*
X800100Y82160D02*
X800100Y97240D01*
X774700Y97240D02*
X774700Y82160D01*
X749300Y82160D02*
X749300Y97240D01*
X723900Y97240D02*
X723900Y82160D01*
X698500Y82160D02*
X698500Y97240D01*
X368300Y97240D02*
X368300Y82160D01*
X342900Y82160D02*
X342900Y97240D01*
X317500Y97240D02*
X317500Y82160D01*
D17*
X130000Y920000D03*
D18*
X240000Y920000D03*
D19*
X660000Y105000D03*
X695000Y210000D03*
X615000Y465000D03*
X615000Y530000D03*
X390000Y290000D03*
X440000Y620000D03*
X570000Y690000D03*
X440000Y735000D03*
X440000Y895000D03*
X565000Y760000D03*
X720000Y535000D03*
X35000Y570000D03*
X75000Y910000D03*
X35000Y380000D03*
X165000Y230000D03*
X575000Y320000D03*
X350000Y875000D03*
X320000Y960000D03*
X495000Y840000D03*
X440000Y815000D03*
X500000Y255000D03*
X615000Y400000D03*
X705000Y440000D03*
X615000Y705000D03*
X615000Y635000D03*
X930000Y505000D03*
X640000Y50000D03*
X345000Y315000D03*
X345000Y565000D03*
X365000Y680000D03*
X705000Y350000D03*
X650000Y295000D03*
X625000Y135000D03*
X345000Y435000D03*
X35000Y655000D03*
X35000Y750000D03*
X35000Y855000D03*
X35000Y475000D03*
X35000Y285000D03*
X440000Y965000D03*
X360000Y785000D03*
X475000Y655000D03*
X515000Y615000D03*
X665000Y485000D03*
X565000Y855000D03*
X455000Y290000D03*
X400000Y245000D03*
X500000Y145000D03*
X570000Y400000D03*
X570000Y485000D03*
X570000Y555000D03*
X500000Y335000D03*
X500000Y420000D03*
X500000Y510000D03*
X445000Y540000D03*
X405000Y420000D03*
X670000Y405000D03*
X870000Y45000D03*
X925000Y105000D03*
X925000Y210000D03*
X930000Y300000D03*
X930000Y410000D03*
X800000Y175000D03*
X810000Y235000D03*
X875000Y300000D03*
X875000Y225000D03*
X855000Y345000D03*
X840000Y410000D03*
X90000Y105000D03*
X175000Y65000D03*
X260000Y65000D03*
X255000Y125000D03*
X310000Y165000D03*
X405000Y165000D03*
X415000Y90000D03*
X460000Y25000D03*
X495000Y190000D03*
X455000Y230000D03*
X455000Y190000D03*
X500000Y760000D03*
X715000Y860000D03*
X705000Y745000D03*
X530000Y895000D03*
X790000Y810000D03*
X685000Y615000D03*
X790000Y890000D03*
X560000Y965000D03*
X635000Y900000D03*
X925000Y620000D03*
X925000Y730000D03*
X930000Y820000D03*
X880000Y865000D03*
X875000Y790000D03*
X875000Y675000D03*
X875000Y585000D03*
X750000Y640000D03*
X805000Y685000D03*
X785000Y745000D03*
X635000Y820000D03*
X445000Y365000D03*
X870000Y155000D03*
X730000Y925000D03*
D20*
X596900Y148100D02*
X596900Y89700D01*
X596900Y148100D02*
X590000Y155000D01*
X590000Y250000D01*
D21*
X590000Y250000D03*
D20*
X571500Y180000D02*
X571500Y89700D01*
X571500Y180000D02*
X571500Y266500D01*
X585000Y280000D01*
X621700Y280000D01*
X622300Y279400D01*
X622300Y254000D02*
X665000Y211300D01*
X665000Y175000D01*
X683000Y157000D01*
X711000Y157000D02*
X714000Y154000D01*
X711000Y157000D02*
X683000Y157000D01*
D22*
X714000Y154000D03*
X826000Y140000D03*
D20*
X826000Y90200D01*
X825500Y89700D01*
X650000Y200900D02*
X622300Y228600D01*
X650000Y200900D02*
X650000Y160000D01*
X677000Y133000D01*
D22*
X728000Y133000D03*
D20*
X677000Y133000D01*
D23*
X749300Y355600D02*
X749300Y599300D01*
X786500Y636500D02*
X841000Y636500D01*
X786500Y636500D02*
X749300Y599300D01*
X775000Y355900D02*
X749300Y330200D01*
X801100Y611100D02*
X841000Y611100D01*
X775000Y585000D02*
X775000Y355900D01*
X775000Y585000D02*
X801100Y611100D01*
X795000Y350500D02*
X749300Y304800D01*
X795000Y350500D02*
X795000Y570000D01*
X810700Y585700D01*
X841000Y585700D01*
X795000Y299700D02*
X749300Y254000D01*
X795000Y299700D02*
X795000Y315000D01*
D24*
X795000Y315000D03*
D23*
X815000Y294300D02*
X749300Y228600D01*
X815000Y550000D02*
X825300Y560300D01*
X841000Y560300D01*
X815000Y550000D02*
X815000Y294300D01*
X895000Y348900D02*
X749300Y203200D01*
X895000Y348900D02*
X895000Y385000D01*
D24*
X895000Y385000D03*
D23*
X749300Y150700D02*
X749300Y89700D01*
X749300Y150700D02*
X725000Y175000D01*
X725000Y255000D01*
D24*
X725000Y255000D03*
D23*
X774700Y194700D02*
X774700Y89700D01*
X774700Y194700D02*
X775000Y195000D01*
D24*
X775000Y195000D03*
D23*
X520700Y89700D02*
X520700Y524300D01*
X484700Y560300D02*
X405000Y560300D01*
X484700Y560300D02*
X520700Y524300D01*
X546100Y553900D02*
X546100Y89700D01*
X514300Y585700D02*
X405000Y585700D01*
X514300Y585700D02*
X546100Y553900D01*
D22*
X371000Y231000D03*
D20*
X371000Y623000D01*
X385000Y637000D01*
X404500Y637000D01*
X405000Y636500D01*
D25*
X241300Y190500D02*
X139700Y190500D01*
X469900Y89700D02*
X470000Y89800D01*
X470000Y140000D01*
X419500Y190500D02*
X241300Y190500D01*
X419500Y190500D02*
X470000Y140000D01*
D20*
X622100Y330000D02*
X622300Y330200D01*
D26*
X533700Y941300D02*
X405000Y941300D01*
X533700Y941300D02*
X595000Y880000D01*
X595000Y340000D01*
X605000Y330000D01*
X622100Y330000D01*
X622300Y330200D02*
X698500Y330200D01*
X749300Y279400D01*
D27*
X130000Y920000D02*
X90500Y880500D01*
X90500Y783400D01*
X290500Y783400D02*
X290500Y884500D01*
X255000Y920000D01*
X240000Y920000D01*
M02*
