G04 EAGLE Gerber RS-274X export*
G75*
%MOMM*%
%FSLAX34Y34*%
%LPD*%
%IN*%
%IPPOS*%
%AMOC8*
5,1,8,0,0,1.08239X$1,22.5*%
G01*
%ADD10C,0.254000*%


D10*
X0Y50000D02*
X190Y45642D01*
X760Y41318D01*
X1704Y37059D01*
X3015Y32899D01*
X4685Y28869D01*
X6699Y25000D01*
X9042Y21321D01*
X11698Y17861D01*
X14645Y14645D01*
X17861Y11698D01*
X21321Y9042D01*
X25000Y6699D01*
X28869Y4685D01*
X32899Y3015D01*
X37059Y1704D01*
X41318Y760D01*
X45642Y190D01*
X50000Y0D01*
X950000Y0D01*
X954358Y190D01*
X958682Y760D01*
X962941Y1704D01*
X967101Y3015D01*
X971131Y4685D01*
X975000Y6699D01*
X978679Y9042D01*
X982139Y11698D01*
X985355Y14645D01*
X988302Y17861D01*
X990958Y21321D01*
X993301Y25000D01*
X995315Y28869D01*
X996985Y32899D01*
X998296Y37059D01*
X999240Y41318D01*
X999810Y45642D01*
X1000000Y50000D01*
X1000000Y950000D01*
X999810Y954358D01*
X999240Y958682D01*
X998296Y962941D01*
X996985Y967101D01*
X995315Y971131D01*
X993301Y975000D01*
X990958Y978679D01*
X988302Y982139D01*
X985355Y985355D01*
X982139Y988302D01*
X978679Y990958D01*
X975000Y993301D01*
X971131Y995315D01*
X967101Y996985D01*
X962941Y998296D01*
X958682Y999240D01*
X954358Y999810D01*
X950000Y1000000D01*
X50000Y1000000D01*
X45642Y999810D01*
X41318Y999240D01*
X37059Y998296D01*
X32899Y996985D01*
X28869Y995315D01*
X25000Y993301D01*
X21321Y990958D01*
X17861Y988302D01*
X14645Y985355D01*
X11698Y982139D01*
X9042Y978679D01*
X6699Y975000D01*
X4685Y971131D01*
X3015Y967101D01*
X1704Y962941D01*
X760Y958682D01*
X190Y954358D01*
X0Y950000D01*
X0Y50000D01*
X75000Y49299D02*
X74921Y47898D01*
X74764Y46504D01*
X74529Y45121D01*
X74217Y43753D01*
X73829Y42405D01*
X73365Y41081D01*
X72829Y39785D01*
X72220Y38521D01*
X71541Y37293D01*
X70795Y36105D01*
X69983Y34961D01*
X69108Y33864D01*
X68174Y32818D01*
X67182Y31826D01*
X66136Y30892D01*
X65039Y30017D01*
X63895Y29205D01*
X62707Y28459D01*
X61479Y27780D01*
X60215Y27171D01*
X58919Y26635D01*
X57595Y26171D01*
X56247Y25783D01*
X54879Y25471D01*
X53496Y25236D01*
X52102Y25079D01*
X50701Y25000D01*
X49299Y25000D01*
X47898Y25079D01*
X46504Y25236D01*
X45121Y25471D01*
X43753Y25783D01*
X42405Y26171D01*
X41081Y26635D01*
X39785Y27171D01*
X38521Y27780D01*
X37293Y28459D01*
X36105Y29205D01*
X34961Y30017D01*
X33864Y30892D01*
X32818Y31826D01*
X31826Y32818D01*
X30892Y33864D01*
X30017Y34961D01*
X29205Y36105D01*
X28459Y37293D01*
X27780Y38521D01*
X27171Y39785D01*
X26635Y41081D01*
X26171Y42405D01*
X25783Y43753D01*
X25471Y45121D01*
X25236Y46504D01*
X25079Y47898D01*
X25000Y49299D01*
X25000Y50701D01*
X25079Y52102D01*
X25236Y53496D01*
X25471Y54879D01*
X25783Y56247D01*
X26171Y57595D01*
X26635Y58919D01*
X27171Y60215D01*
X27780Y61479D01*
X28459Y62707D01*
X29205Y63895D01*
X30017Y65039D01*
X30892Y66136D01*
X31826Y67182D01*
X32818Y68174D01*
X33864Y69108D01*
X34961Y69983D01*
X36105Y70795D01*
X37293Y71541D01*
X38521Y72220D01*
X39785Y72829D01*
X41081Y73365D01*
X42405Y73829D01*
X43753Y74217D01*
X45121Y74529D01*
X46504Y74764D01*
X47898Y74921D01*
X49299Y75000D01*
X50701Y75000D01*
X52102Y74921D01*
X53496Y74764D01*
X54879Y74529D01*
X56247Y74217D01*
X57595Y73829D01*
X58919Y73365D01*
X60215Y72829D01*
X61479Y72220D01*
X62707Y71541D01*
X63895Y70795D01*
X65039Y69983D01*
X66136Y69108D01*
X67182Y68174D01*
X68174Y67182D01*
X69108Y66136D01*
X69983Y65039D01*
X70795Y63895D01*
X71541Y62707D01*
X72220Y61479D01*
X72829Y60215D01*
X73365Y58919D01*
X73829Y57595D01*
X74217Y56247D01*
X74529Y54879D01*
X74764Y53496D01*
X74921Y52102D01*
X75000Y50701D01*
X75000Y49299D01*
X975000Y949299D02*
X974921Y947898D01*
X974764Y946504D01*
X974529Y945121D01*
X974217Y943753D01*
X973829Y942405D01*
X973365Y941081D01*
X972829Y939785D01*
X972220Y938521D01*
X971541Y937293D01*
X970795Y936105D01*
X969983Y934961D01*
X969108Y933864D01*
X968174Y932818D01*
X967182Y931826D01*
X966136Y930892D01*
X965039Y930017D01*
X963895Y929205D01*
X962707Y928459D01*
X961479Y927780D01*
X960215Y927171D01*
X958919Y926635D01*
X957595Y926171D01*
X956247Y925783D01*
X954879Y925471D01*
X953496Y925236D01*
X952102Y925079D01*
X950701Y925000D01*
X949299Y925000D01*
X947898Y925079D01*
X946504Y925236D01*
X945121Y925471D01*
X943753Y925783D01*
X942405Y926171D01*
X941081Y926635D01*
X939785Y927171D01*
X938521Y927780D01*
X937293Y928459D01*
X936105Y929205D01*
X934961Y930017D01*
X933864Y930892D01*
X932818Y931826D01*
X931826Y932818D01*
X930892Y933864D01*
X930017Y934961D01*
X929205Y936105D01*
X928459Y937293D01*
X927780Y938521D01*
X927171Y939785D01*
X926635Y941081D01*
X926171Y942405D01*
X925783Y943753D01*
X925471Y945121D01*
X925236Y946504D01*
X925079Y947898D01*
X925000Y949299D01*
X925000Y950701D01*
X925079Y952102D01*
X925236Y953496D01*
X925471Y954879D01*
X925783Y956247D01*
X926171Y957595D01*
X926635Y958919D01*
X927171Y960215D01*
X927780Y961479D01*
X928459Y962707D01*
X929205Y963895D01*
X930017Y965039D01*
X930892Y966136D01*
X931826Y967182D01*
X932818Y968174D01*
X933864Y969108D01*
X934961Y969983D01*
X936105Y970795D01*
X937293Y971541D01*
X938521Y972220D01*
X939785Y972829D01*
X941081Y973365D01*
X942405Y973829D01*
X943753Y974217D01*
X945121Y974529D01*
X946504Y974764D01*
X947898Y974921D01*
X949299Y975000D01*
X950701Y975000D01*
X952102Y974921D01*
X953496Y974764D01*
X954879Y974529D01*
X956247Y974217D01*
X957595Y973829D01*
X958919Y973365D01*
X960215Y972829D01*
X961479Y972220D01*
X962707Y971541D01*
X963895Y970795D01*
X965039Y969983D01*
X966136Y969108D01*
X967182Y968174D01*
X968174Y967182D01*
X969108Y966136D01*
X969983Y965039D01*
X970795Y963895D01*
X971541Y962707D01*
X972220Y961479D01*
X972829Y960215D01*
X973365Y958919D01*
X973829Y957595D01*
X974217Y956247D01*
X974529Y954879D01*
X974764Y953496D01*
X974921Y952102D01*
X975000Y950701D01*
X975000Y949299D01*
X75000Y949299D02*
X74921Y947898D01*
X74764Y946504D01*
X74529Y945121D01*
X74217Y943753D01*
X73829Y942405D01*
X73365Y941081D01*
X72829Y939785D01*
X72220Y938521D01*
X71541Y937293D01*
X70795Y936105D01*
X69983Y934961D01*
X69108Y933864D01*
X68174Y932818D01*
X67182Y931826D01*
X66136Y930892D01*
X65039Y930017D01*
X63895Y929205D01*
X62707Y928459D01*
X61479Y927780D01*
X60215Y927171D01*
X58919Y926635D01*
X57595Y926171D01*
X56247Y925783D01*
X54879Y925471D01*
X53496Y925236D01*
X52102Y925079D01*
X50701Y925000D01*
X49299Y925000D01*
X47898Y925079D01*
X46504Y925236D01*
X45121Y925471D01*
X43753Y925783D01*
X42405Y926171D01*
X41081Y926635D01*
X39785Y927171D01*
X38521Y927780D01*
X37293Y928459D01*
X36105Y929205D01*
X34961Y930017D01*
X33864Y930892D01*
X32818Y931826D01*
X31826Y932818D01*
X30892Y933864D01*
X30017Y934961D01*
X29205Y936105D01*
X28459Y937293D01*
X27780Y938521D01*
X27171Y939785D01*
X26635Y941081D01*
X26171Y942405D01*
X25783Y943753D01*
X25471Y945121D01*
X25236Y946504D01*
X25079Y947898D01*
X25000Y949299D01*
X25000Y950701D01*
X25079Y952102D01*
X25236Y953496D01*
X25471Y954879D01*
X25783Y956247D01*
X26171Y957595D01*
X26635Y958919D01*
X27171Y960215D01*
X27780Y961479D01*
X28459Y962707D01*
X29205Y963895D01*
X30017Y965039D01*
X30892Y966136D01*
X31826Y967182D01*
X32818Y968174D01*
X33864Y969108D01*
X34961Y969983D01*
X36105Y970795D01*
X37293Y971541D01*
X38521Y972220D01*
X39785Y972829D01*
X41081Y973365D01*
X42405Y973829D01*
X43753Y974217D01*
X45121Y974529D01*
X46504Y974764D01*
X47898Y974921D01*
X49299Y975000D01*
X50701Y975000D01*
X52102Y974921D01*
X53496Y974764D01*
X54879Y974529D01*
X56247Y974217D01*
X57595Y973829D01*
X58919Y973365D01*
X60215Y972829D01*
X61479Y972220D01*
X62707Y971541D01*
X63895Y970795D01*
X65039Y969983D01*
X66136Y969108D01*
X67182Y968174D01*
X68174Y967182D01*
X69108Y966136D01*
X69983Y965039D01*
X70795Y963895D01*
X71541Y962707D01*
X72220Y961479D01*
X72829Y960215D01*
X73365Y958919D01*
X73829Y957595D01*
X74217Y956247D01*
X74529Y954879D01*
X74764Y953496D01*
X74921Y952102D01*
X75000Y950701D01*
X75000Y949299D01*
X273000Y708973D02*
X273075Y710116D01*
X273225Y711252D01*
X273448Y712376D01*
X273745Y713483D01*
X274113Y714568D01*
X274551Y715626D01*
X275058Y716654D01*
X275631Y717646D01*
X276268Y718599D01*
X276965Y719508D01*
X277721Y720369D01*
X278531Y721179D01*
X279392Y721935D01*
X280301Y722632D01*
X281254Y723269D01*
X282246Y723842D01*
X283274Y724349D01*
X284332Y724787D01*
X285417Y725155D01*
X286524Y725452D01*
X287648Y725676D01*
X288784Y725825D01*
X289927Y725900D01*
X291073Y725900D01*
X292216Y725825D01*
X293352Y725676D01*
X294476Y725452D01*
X295583Y725155D01*
X296668Y724787D01*
X297726Y724349D01*
X298754Y723842D01*
X299746Y723269D01*
X300699Y722632D01*
X301608Y721935D01*
X302469Y721179D01*
X303279Y720369D01*
X304035Y719508D01*
X304732Y718599D01*
X305369Y717646D01*
X305942Y716654D01*
X306449Y715626D01*
X306887Y714568D01*
X307255Y713483D01*
X307552Y712376D01*
X307776Y711252D01*
X307925Y710116D01*
X308000Y708973D01*
X308000Y707827D01*
X307925Y706684D01*
X307776Y705548D01*
X307552Y704424D01*
X307255Y703317D01*
X306887Y702232D01*
X306449Y701174D01*
X305942Y700146D01*
X305369Y699154D01*
X304732Y698201D01*
X304035Y697292D01*
X303279Y696431D01*
X302469Y695621D01*
X301608Y694865D01*
X300699Y694168D01*
X299746Y693531D01*
X298754Y692958D01*
X297726Y692451D01*
X296668Y692013D01*
X295583Y691645D01*
X294476Y691348D01*
X293352Y691125D01*
X292216Y690975D01*
X291073Y690900D01*
X289927Y690900D01*
X288784Y690975D01*
X287648Y691125D01*
X286524Y691348D01*
X285417Y691645D01*
X284332Y692013D01*
X283274Y692451D01*
X282246Y692958D01*
X281254Y693531D01*
X280301Y694168D01*
X279392Y694865D01*
X278531Y695621D01*
X277721Y696431D01*
X276965Y697292D01*
X276268Y698201D01*
X275631Y699154D01*
X275058Y700146D01*
X274551Y701174D01*
X274113Y702232D01*
X273745Y703317D01*
X273448Y704424D01*
X273225Y705548D01*
X273075Y706684D01*
X273000Y707827D01*
X273000Y708973D01*
X73000Y358973D02*
X73075Y360116D01*
X73225Y361252D01*
X73448Y362376D01*
X73745Y363483D01*
X74113Y364568D01*
X74551Y365626D01*
X75058Y366654D01*
X75631Y367646D01*
X76268Y368599D01*
X76965Y369508D01*
X77721Y370369D01*
X78531Y371179D01*
X79392Y371935D01*
X80301Y372632D01*
X81254Y373269D01*
X82246Y373842D01*
X83274Y374349D01*
X84332Y374787D01*
X85417Y375155D01*
X86524Y375452D01*
X87648Y375676D01*
X88784Y375825D01*
X89927Y375900D01*
X91073Y375900D01*
X92216Y375825D01*
X93352Y375676D01*
X94476Y375452D01*
X95583Y375155D01*
X96668Y374787D01*
X97726Y374349D01*
X98754Y373842D01*
X99746Y373269D01*
X100699Y372632D01*
X101608Y371935D01*
X102469Y371179D01*
X103279Y370369D01*
X104035Y369508D01*
X104732Y368599D01*
X105369Y367646D01*
X105942Y366654D01*
X106449Y365626D01*
X106887Y364568D01*
X107255Y363483D01*
X107552Y362376D01*
X107776Y361252D01*
X107925Y360116D01*
X108000Y358973D01*
X108000Y357827D01*
X107925Y356684D01*
X107776Y355548D01*
X107552Y354424D01*
X107255Y353317D01*
X106887Y352232D01*
X106449Y351174D01*
X105942Y350146D01*
X105369Y349154D01*
X104732Y348201D01*
X104035Y347292D01*
X103279Y346431D01*
X102469Y345621D01*
X101608Y344865D01*
X100699Y344168D01*
X99746Y343531D01*
X98754Y342958D01*
X97726Y342451D01*
X96668Y342013D01*
X95583Y341645D01*
X94476Y341348D01*
X93352Y341125D01*
X92216Y340975D01*
X91073Y340900D01*
X89927Y340900D01*
X88784Y340975D01*
X87648Y341125D01*
X86524Y341348D01*
X85417Y341645D01*
X84332Y342013D01*
X83274Y342451D01*
X82246Y342958D01*
X81254Y343531D01*
X80301Y344168D01*
X79392Y344865D01*
X78531Y345621D01*
X77721Y346431D01*
X76965Y347292D01*
X76268Y348201D01*
X75631Y349154D01*
X75058Y350146D01*
X74551Y351174D01*
X74113Y352232D01*
X73745Y353317D01*
X73448Y354424D01*
X73225Y355548D01*
X73075Y356684D01*
X73000Y357827D01*
X73000Y358973D01*
M02*
